G04 EAGLE Gerber RS-274X export*
G75*
%MOMM*%
%FSLAX34Y34*%
%LPD*%
%INSilkscreen Bottom*%
%IPPOS*%
%AMOC8*
5,1,8,0,0,1.08239X$1,22.5*%
G01*
%ADD10C,0.203200*%
%ADD11R,0.200000X1.000000*%
%ADD12C,0.152400*%
%ADD13R,1.000000X0.200000*%
%ADD14C,0.127000*%
%ADD15C,0.101600*%

G36*
X722558Y20632D02*
X722558Y20632D01*
X722646Y20641D01*
X722667Y20651D01*
X722691Y20655D01*
X722768Y20701D01*
X722847Y20740D01*
X722864Y20757D01*
X722884Y20770D01*
X722940Y20839D01*
X723001Y20903D01*
X723010Y20925D01*
X723025Y20944D01*
X723054Y21028D01*
X723089Y21110D01*
X723090Y21134D01*
X723097Y21156D01*
X723095Y21245D01*
X723099Y21334D01*
X723091Y21357D01*
X723091Y21381D01*
X723057Y21463D01*
X723030Y21548D01*
X723014Y21569D01*
X723006Y21588D01*
X722972Y21626D01*
X722918Y21698D01*
X719108Y25508D01*
X719075Y25532D01*
X719049Y25560D01*
X719045Y25564D01*
X718982Y25596D01*
X718924Y25637D01*
X718883Y25647D01*
X718845Y25667D01*
X718756Y25680D01*
X718707Y25693D01*
X718686Y25690D01*
X718660Y25694D01*
X714850Y25694D01*
X714785Y25683D01*
X714719Y25681D01*
X714676Y25663D01*
X714629Y25655D01*
X714572Y25621D01*
X714512Y25596D01*
X714477Y25565D01*
X714436Y25540D01*
X714395Y25489D01*
X714346Y25445D01*
X714324Y25403D01*
X714295Y25366D01*
X714274Y25304D01*
X714243Y25245D01*
X714235Y25191D01*
X714223Y25154D01*
X714223Y25150D01*
X714223Y25149D01*
X714224Y25114D01*
X714216Y25060D01*
X714216Y21250D01*
X714227Y21185D01*
X714229Y21119D01*
X714247Y21076D01*
X714255Y21029D01*
X714289Y20972D01*
X714314Y20912D01*
X714345Y20877D01*
X714370Y20836D01*
X714421Y20795D01*
X714465Y20746D01*
X714507Y20724D01*
X714544Y20695D01*
X714606Y20674D01*
X714665Y20643D01*
X714719Y20635D01*
X714756Y20623D01*
X714796Y20624D01*
X714850Y20616D01*
X722470Y20616D01*
X722558Y20632D01*
G37*
G36*
X199415Y925417D02*
X199415Y925417D01*
X199481Y925419D01*
X199524Y925437D01*
X199571Y925445D01*
X199628Y925479D01*
X199688Y925504D01*
X199723Y925535D01*
X199764Y925560D01*
X199806Y925611D01*
X199854Y925655D01*
X199876Y925697D01*
X199905Y925734D01*
X199926Y925796D01*
X199957Y925855D01*
X199965Y925909D01*
X199977Y925946D01*
X199976Y925986D01*
X199984Y926040D01*
X199984Y929850D01*
X199973Y929915D01*
X199971Y929981D01*
X199953Y930024D01*
X199945Y930071D01*
X199911Y930128D01*
X199886Y930188D01*
X199855Y930223D01*
X199830Y930264D01*
X199779Y930306D01*
X199735Y930354D01*
X199693Y930376D01*
X199656Y930405D01*
X199594Y930426D01*
X199535Y930457D01*
X199481Y930465D01*
X199444Y930477D01*
X199404Y930476D01*
X199350Y930484D01*
X191730Y930484D01*
X191642Y930468D01*
X191554Y930459D01*
X191533Y930449D01*
X191509Y930445D01*
X191432Y930399D01*
X191353Y930360D01*
X191336Y930343D01*
X191316Y930330D01*
X191260Y930261D01*
X191199Y930197D01*
X191190Y930175D01*
X191175Y930156D01*
X191146Y930072D01*
X191111Y929990D01*
X191110Y929966D01*
X191103Y929944D01*
X191105Y929855D01*
X191101Y929766D01*
X191109Y929743D01*
X191109Y929719D01*
X191143Y929637D01*
X191170Y929552D01*
X191186Y929531D01*
X191194Y929512D01*
X191228Y929474D01*
X191282Y929402D01*
X195092Y925592D01*
X195126Y925567D01*
X195155Y925536D01*
X195218Y925504D01*
X195276Y925463D01*
X195317Y925453D01*
X195355Y925433D01*
X195444Y925420D01*
X195493Y925408D01*
X195514Y925410D01*
X195540Y925406D01*
X199350Y925406D01*
X199415Y925417D01*
G37*
G36*
X233315Y49617D02*
X233315Y49617D01*
X233381Y49619D01*
X233424Y49637D01*
X233471Y49645D01*
X233528Y49679D01*
X233588Y49704D01*
X233623Y49735D01*
X233664Y49760D01*
X233706Y49811D01*
X233754Y49855D01*
X233776Y49897D01*
X233805Y49934D01*
X233826Y49996D01*
X233857Y50055D01*
X233865Y50109D01*
X233877Y50146D01*
X233876Y50186D01*
X233884Y50240D01*
X233884Y54050D01*
X233873Y54115D01*
X233871Y54181D01*
X233853Y54224D01*
X233845Y54271D01*
X233811Y54328D01*
X233786Y54388D01*
X233755Y54423D01*
X233730Y54464D01*
X233679Y54506D01*
X233635Y54554D01*
X233593Y54576D01*
X233556Y54605D01*
X233494Y54626D01*
X233435Y54657D01*
X233381Y54665D01*
X233344Y54677D01*
X233304Y54676D01*
X233250Y54684D01*
X225630Y54684D01*
X225542Y54668D01*
X225454Y54659D01*
X225433Y54649D01*
X225409Y54645D01*
X225332Y54599D01*
X225253Y54560D01*
X225236Y54543D01*
X225216Y54530D01*
X225160Y54461D01*
X225099Y54397D01*
X225090Y54375D01*
X225075Y54356D01*
X225046Y54272D01*
X225011Y54190D01*
X225010Y54166D01*
X225003Y54144D01*
X225005Y54055D01*
X225001Y53966D01*
X225009Y53943D01*
X225009Y53919D01*
X225043Y53837D01*
X225070Y53752D01*
X225086Y53731D01*
X225094Y53712D01*
X225128Y53674D01*
X225182Y53602D01*
X228992Y49792D01*
X229026Y49767D01*
X229055Y49736D01*
X229118Y49704D01*
X229176Y49663D01*
X229217Y49653D01*
X229255Y49633D01*
X229344Y49620D01*
X229393Y49608D01*
X229414Y49610D01*
X229440Y49606D01*
X233250Y49606D01*
X233315Y49617D01*
G37*
G36*
X683215Y1011117D02*
X683215Y1011117D01*
X683281Y1011119D01*
X683324Y1011137D01*
X683371Y1011145D01*
X683428Y1011179D01*
X683488Y1011204D01*
X683523Y1011235D01*
X683564Y1011260D01*
X683606Y1011311D01*
X683654Y1011355D01*
X683676Y1011397D01*
X683705Y1011434D01*
X683726Y1011496D01*
X683757Y1011555D01*
X683765Y1011609D01*
X683777Y1011646D01*
X683776Y1011686D01*
X683784Y1011740D01*
X683784Y1015550D01*
X683773Y1015615D01*
X683771Y1015681D01*
X683753Y1015724D01*
X683745Y1015771D01*
X683711Y1015828D01*
X683686Y1015888D01*
X683655Y1015923D01*
X683630Y1015964D01*
X683579Y1016006D01*
X683535Y1016054D01*
X683493Y1016076D01*
X683456Y1016105D01*
X683394Y1016126D01*
X683335Y1016157D01*
X683281Y1016165D01*
X683244Y1016177D01*
X683204Y1016176D01*
X683150Y1016184D01*
X675530Y1016184D01*
X675442Y1016168D01*
X675354Y1016159D01*
X675333Y1016149D01*
X675309Y1016145D01*
X675232Y1016099D01*
X675153Y1016060D01*
X675136Y1016043D01*
X675116Y1016030D01*
X675060Y1015961D01*
X674999Y1015897D01*
X674990Y1015875D01*
X674975Y1015856D01*
X674946Y1015772D01*
X674911Y1015690D01*
X674910Y1015666D01*
X674903Y1015644D01*
X674905Y1015555D01*
X674901Y1015466D01*
X674909Y1015443D01*
X674909Y1015419D01*
X674943Y1015337D01*
X674970Y1015252D01*
X674986Y1015231D01*
X674994Y1015212D01*
X675028Y1015174D01*
X675082Y1015102D01*
X678892Y1011292D01*
X678926Y1011267D01*
X678955Y1011236D01*
X679018Y1011204D01*
X679076Y1011163D01*
X679117Y1011153D01*
X679155Y1011133D01*
X679244Y1011120D01*
X679293Y1011108D01*
X679314Y1011110D01*
X679340Y1011106D01*
X683150Y1011106D01*
X683215Y1011117D01*
G37*
G36*
X381116Y378995D02*
X381116Y378995D01*
X381143Y378995D01*
X381254Y379027D01*
X381367Y379053D01*
X381390Y379066D01*
X381416Y379074D01*
X381514Y379136D01*
X381615Y379192D01*
X381631Y379210D01*
X381656Y379225D01*
X381841Y379433D01*
X381845Y379437D01*
X383845Y382437D01*
X383876Y382501D01*
X383916Y382561D01*
X383937Y382629D01*
X383968Y382693D01*
X383980Y382764D01*
X384001Y382832D01*
X384003Y382903D01*
X384015Y382974D01*
X384007Y383045D01*
X384009Y383116D01*
X383991Y383185D01*
X383982Y383256D01*
X383955Y383322D01*
X383937Y383391D01*
X383900Y383452D01*
X383873Y383518D01*
X383828Y383574D01*
X383792Y383636D01*
X383740Y383685D01*
X383695Y383740D01*
X383637Y383781D01*
X383584Y383830D01*
X383521Y383863D01*
X383463Y383904D01*
X383395Y383927D01*
X383331Y383960D01*
X383272Y383970D01*
X383194Y383997D01*
X383075Y384003D01*
X383000Y384015D01*
X379000Y384015D01*
X378929Y384005D01*
X378857Y384005D01*
X378789Y383985D01*
X378719Y383975D01*
X378653Y383946D01*
X378584Y383926D01*
X378524Y383888D01*
X378459Y383859D01*
X378404Y383813D01*
X378344Y383775D01*
X378296Y383722D01*
X378242Y383676D01*
X378202Y383616D01*
X378155Y383562D01*
X378124Y383498D01*
X378085Y383439D01*
X378063Y383371D01*
X378032Y383306D01*
X378020Y383236D01*
X377999Y383168D01*
X377997Y383096D01*
X377985Y383026D01*
X377993Y382955D01*
X377991Y382884D01*
X378010Y382814D01*
X378018Y382743D01*
X378043Y382688D01*
X378063Y382609D01*
X378124Y382506D01*
X378155Y382437D01*
X380155Y379437D01*
X380232Y379350D01*
X380305Y379260D01*
X380327Y379245D01*
X380345Y379225D01*
X380442Y379163D01*
X380537Y379096D01*
X380563Y379088D01*
X380585Y379073D01*
X380696Y379041D01*
X380806Y379003D01*
X380833Y379002D01*
X380858Y378995D01*
X380974Y378995D01*
X381090Y378989D01*
X381116Y378995D01*
G37*
G36*
X535445Y377993D02*
X535445Y377993D01*
X535516Y377991D01*
X535585Y378009D01*
X535656Y378018D01*
X535722Y378045D01*
X535791Y378063D01*
X535852Y378100D01*
X535918Y378127D01*
X535974Y378172D01*
X536036Y378209D01*
X536085Y378260D01*
X536140Y378305D01*
X536181Y378364D01*
X536230Y378416D01*
X536263Y378479D01*
X536304Y378537D01*
X536327Y378605D01*
X536360Y378669D01*
X536370Y378728D01*
X536397Y378806D01*
X536403Y378925D01*
X536415Y379000D01*
X536415Y383000D01*
X536405Y383071D01*
X536405Y383143D01*
X536385Y383211D01*
X536375Y383282D01*
X536346Y383347D01*
X536326Y383416D01*
X536288Y383476D01*
X536259Y383541D01*
X536213Y383596D01*
X536175Y383656D01*
X536122Y383704D01*
X536076Y383758D01*
X536016Y383798D01*
X535962Y383845D01*
X535898Y383876D01*
X535839Y383916D01*
X535771Y383937D01*
X535706Y383968D01*
X535636Y383980D01*
X535568Y384001D01*
X535496Y384003D01*
X535426Y384015D01*
X535355Y384007D01*
X535284Y384009D01*
X535214Y383990D01*
X535143Y383982D01*
X535088Y383957D01*
X535009Y383937D01*
X534906Y383876D01*
X534837Y383845D01*
X531837Y381845D01*
X531750Y381768D01*
X531660Y381695D01*
X531645Y381673D01*
X531625Y381655D01*
X531563Y381558D01*
X531496Y381463D01*
X531488Y381437D01*
X531473Y381415D01*
X531441Y381304D01*
X531403Y381194D01*
X531402Y381167D01*
X531395Y381142D01*
X531395Y381026D01*
X531389Y380910D01*
X531395Y380884D01*
X531395Y380857D01*
X531427Y380746D01*
X531453Y380633D01*
X531466Y380610D01*
X531474Y380584D01*
X531536Y380486D01*
X531592Y380385D01*
X531610Y380369D01*
X531625Y380344D01*
X531833Y380159D01*
X531837Y380155D01*
X534837Y378155D01*
X534901Y378124D01*
X534961Y378085D01*
X535029Y378063D01*
X535093Y378032D01*
X535164Y378020D01*
X535232Y377999D01*
X535303Y377997D01*
X535374Y377985D01*
X535445Y377993D01*
G37*
G36*
X290145Y365293D02*
X290145Y365293D01*
X290216Y365291D01*
X290286Y365310D01*
X290357Y365318D01*
X290412Y365343D01*
X290491Y365363D01*
X290594Y365424D01*
X290663Y365455D01*
X293663Y367455D01*
X293750Y367532D01*
X293840Y367605D01*
X293855Y367627D01*
X293875Y367645D01*
X293937Y367742D01*
X294004Y367837D01*
X294012Y367863D01*
X294027Y367885D01*
X294059Y367996D01*
X294097Y368106D01*
X294098Y368133D01*
X294105Y368158D01*
X294105Y368274D01*
X294111Y368390D01*
X294105Y368416D01*
X294105Y368443D01*
X294073Y368554D01*
X294047Y368667D01*
X294034Y368690D01*
X294026Y368716D01*
X293964Y368814D01*
X293908Y368915D01*
X293890Y368931D01*
X293875Y368956D01*
X293667Y369141D01*
X293663Y369145D01*
X290663Y371145D01*
X290599Y371176D01*
X290539Y371216D01*
X290471Y371237D01*
X290407Y371268D01*
X290336Y371280D01*
X290268Y371301D01*
X290197Y371303D01*
X290127Y371315D01*
X290055Y371307D01*
X289984Y371309D01*
X289915Y371291D01*
X289844Y371282D01*
X289778Y371255D01*
X289709Y371237D01*
X289648Y371200D01*
X289582Y371173D01*
X289526Y371128D01*
X289464Y371092D01*
X289415Y371040D01*
X289360Y370995D01*
X289319Y370937D01*
X289270Y370884D01*
X289237Y370821D01*
X289196Y370763D01*
X289173Y370695D01*
X289140Y370631D01*
X289130Y370572D01*
X289103Y370494D01*
X289097Y370375D01*
X289085Y370300D01*
X289085Y366300D01*
X289095Y366229D01*
X289095Y366157D01*
X289115Y366089D01*
X289125Y366019D01*
X289154Y365953D01*
X289174Y365884D01*
X289212Y365824D01*
X289241Y365759D01*
X289287Y365704D01*
X289325Y365644D01*
X289379Y365596D01*
X289425Y365542D01*
X289484Y365502D01*
X289538Y365455D01*
X289602Y365424D01*
X289661Y365385D01*
X289730Y365363D01*
X289794Y365332D01*
X289864Y365320D01*
X289932Y365299D01*
X290004Y365297D01*
X290075Y365285D01*
X290145Y365293D01*
G37*
G36*
X226645Y555793D02*
X226645Y555793D01*
X226716Y555791D01*
X226786Y555810D01*
X226857Y555818D01*
X226912Y555843D01*
X226991Y555863D01*
X227094Y555924D01*
X227163Y555955D01*
X230163Y557955D01*
X230250Y558032D01*
X230340Y558105D01*
X230355Y558127D01*
X230375Y558145D01*
X230437Y558242D01*
X230504Y558337D01*
X230512Y558363D01*
X230527Y558385D01*
X230559Y558496D01*
X230597Y558606D01*
X230598Y558633D01*
X230605Y558658D01*
X230605Y558774D01*
X230611Y558890D01*
X230605Y558916D01*
X230605Y558943D01*
X230573Y559054D01*
X230547Y559167D01*
X230534Y559190D01*
X230526Y559216D01*
X230464Y559314D01*
X230408Y559415D01*
X230390Y559431D01*
X230375Y559456D01*
X230167Y559641D01*
X230163Y559645D01*
X227163Y561645D01*
X227099Y561676D01*
X227039Y561716D01*
X226971Y561737D01*
X226907Y561768D01*
X226836Y561780D01*
X226768Y561801D01*
X226697Y561803D01*
X226627Y561815D01*
X226555Y561807D01*
X226484Y561809D01*
X226415Y561791D01*
X226344Y561782D01*
X226278Y561755D01*
X226209Y561737D01*
X226148Y561700D01*
X226082Y561673D01*
X226026Y561628D01*
X225964Y561592D01*
X225915Y561540D01*
X225860Y561495D01*
X225819Y561437D01*
X225770Y561384D01*
X225737Y561321D01*
X225696Y561263D01*
X225673Y561195D01*
X225640Y561131D01*
X225630Y561072D01*
X225603Y560994D01*
X225597Y560875D01*
X225585Y560800D01*
X225585Y556800D01*
X225595Y556729D01*
X225595Y556657D01*
X225615Y556589D01*
X225625Y556519D01*
X225654Y556453D01*
X225674Y556384D01*
X225712Y556324D01*
X225741Y556259D01*
X225787Y556204D01*
X225825Y556144D01*
X225879Y556096D01*
X225925Y556042D01*
X225984Y556002D01*
X226038Y555955D01*
X226102Y555924D01*
X226161Y555885D01*
X226230Y555863D01*
X226294Y555832D01*
X226364Y555820D01*
X226432Y555799D01*
X226504Y555797D01*
X226575Y555785D01*
X226645Y555793D01*
G37*
G36*
X568445Y189493D02*
X568445Y189493D01*
X568516Y189491D01*
X568585Y189509D01*
X568656Y189518D01*
X568722Y189545D01*
X568791Y189563D01*
X568852Y189600D01*
X568918Y189627D01*
X568974Y189672D01*
X569036Y189709D01*
X569085Y189760D01*
X569140Y189805D01*
X569181Y189864D01*
X569230Y189916D01*
X569263Y189979D01*
X569304Y190037D01*
X569327Y190105D01*
X569360Y190169D01*
X569370Y190228D01*
X569397Y190306D01*
X569403Y190425D01*
X569415Y190500D01*
X569415Y194500D01*
X569405Y194571D01*
X569405Y194643D01*
X569385Y194711D01*
X569375Y194782D01*
X569346Y194847D01*
X569326Y194916D01*
X569288Y194976D01*
X569259Y195041D01*
X569213Y195096D01*
X569175Y195156D01*
X569122Y195204D01*
X569076Y195258D01*
X569016Y195298D01*
X568962Y195345D01*
X568898Y195376D01*
X568839Y195416D01*
X568771Y195437D01*
X568706Y195468D01*
X568636Y195480D01*
X568568Y195501D01*
X568496Y195503D01*
X568426Y195515D01*
X568355Y195507D01*
X568284Y195509D01*
X568214Y195490D01*
X568143Y195482D01*
X568088Y195457D01*
X568009Y195437D01*
X567906Y195376D01*
X567837Y195345D01*
X564837Y193345D01*
X564750Y193268D01*
X564660Y193195D01*
X564645Y193173D01*
X564625Y193155D01*
X564563Y193058D01*
X564496Y192963D01*
X564488Y192937D01*
X564473Y192915D01*
X564441Y192804D01*
X564403Y192694D01*
X564402Y192667D01*
X564395Y192642D01*
X564395Y192526D01*
X564389Y192410D01*
X564395Y192384D01*
X564395Y192357D01*
X564427Y192246D01*
X564453Y192133D01*
X564466Y192110D01*
X564474Y192084D01*
X564536Y191986D01*
X564592Y191885D01*
X564610Y191869D01*
X564625Y191844D01*
X564833Y191659D01*
X564837Y191655D01*
X567837Y189655D01*
X567901Y189624D01*
X567961Y189585D01*
X568029Y189563D01*
X568093Y189532D01*
X568164Y189520D01*
X568232Y189499D01*
X568303Y189497D01*
X568374Y189485D01*
X568445Y189493D01*
G37*
G36*
X290145Y187493D02*
X290145Y187493D01*
X290216Y187491D01*
X290286Y187510D01*
X290357Y187518D01*
X290412Y187543D01*
X290491Y187563D01*
X290594Y187624D01*
X290663Y187655D01*
X293663Y189655D01*
X293750Y189732D01*
X293840Y189805D01*
X293855Y189827D01*
X293875Y189845D01*
X293937Y189942D01*
X294004Y190037D01*
X294012Y190063D01*
X294027Y190085D01*
X294059Y190196D01*
X294097Y190306D01*
X294098Y190333D01*
X294105Y190358D01*
X294105Y190474D01*
X294111Y190590D01*
X294105Y190616D01*
X294105Y190643D01*
X294073Y190754D01*
X294047Y190867D01*
X294034Y190890D01*
X294026Y190916D01*
X293964Y191014D01*
X293908Y191115D01*
X293890Y191131D01*
X293875Y191156D01*
X293667Y191341D01*
X293663Y191345D01*
X290663Y193345D01*
X290599Y193376D01*
X290539Y193416D01*
X290471Y193437D01*
X290407Y193468D01*
X290336Y193480D01*
X290268Y193501D01*
X290197Y193503D01*
X290127Y193515D01*
X290055Y193507D01*
X289984Y193509D01*
X289915Y193491D01*
X289844Y193482D01*
X289778Y193455D01*
X289709Y193437D01*
X289648Y193400D01*
X289582Y193373D01*
X289526Y193328D01*
X289464Y193292D01*
X289415Y193240D01*
X289360Y193195D01*
X289319Y193137D01*
X289270Y193084D01*
X289237Y193021D01*
X289196Y192963D01*
X289173Y192895D01*
X289140Y192831D01*
X289130Y192772D01*
X289103Y192694D01*
X289097Y192575D01*
X289085Y192500D01*
X289085Y188500D01*
X289095Y188429D01*
X289095Y188357D01*
X289115Y188289D01*
X289125Y188219D01*
X289154Y188153D01*
X289174Y188084D01*
X289212Y188024D01*
X289241Y187959D01*
X289287Y187904D01*
X289325Y187844D01*
X289379Y187796D01*
X289425Y187742D01*
X289484Y187702D01*
X289538Y187655D01*
X289602Y187624D01*
X289661Y187585D01*
X289730Y187563D01*
X289794Y187532D01*
X289864Y187520D01*
X289932Y187499D01*
X290004Y187497D01*
X290075Y187485D01*
X290145Y187493D01*
G37*
G36*
X319545Y555793D02*
X319545Y555793D01*
X319616Y555791D01*
X319685Y555809D01*
X319756Y555818D01*
X319822Y555845D01*
X319891Y555863D01*
X319952Y555900D01*
X320018Y555927D01*
X320074Y555972D01*
X320136Y556009D01*
X320185Y556060D01*
X320240Y556105D01*
X320281Y556164D01*
X320330Y556216D01*
X320363Y556279D01*
X320404Y556337D01*
X320427Y556405D01*
X320460Y556469D01*
X320470Y556528D01*
X320497Y556606D01*
X320503Y556725D01*
X320515Y556800D01*
X320515Y560800D01*
X320505Y560871D01*
X320505Y560943D01*
X320485Y561011D01*
X320475Y561082D01*
X320446Y561147D01*
X320426Y561216D01*
X320388Y561276D01*
X320359Y561341D01*
X320313Y561396D01*
X320275Y561456D01*
X320222Y561504D01*
X320176Y561558D01*
X320116Y561598D01*
X320062Y561645D01*
X319998Y561676D01*
X319939Y561716D01*
X319871Y561737D01*
X319806Y561768D01*
X319736Y561780D01*
X319668Y561801D01*
X319596Y561803D01*
X319526Y561815D01*
X319455Y561807D01*
X319384Y561809D01*
X319314Y561790D01*
X319243Y561782D01*
X319188Y561757D01*
X319109Y561737D01*
X319006Y561676D01*
X318937Y561645D01*
X315937Y559645D01*
X315850Y559568D01*
X315760Y559495D01*
X315745Y559473D01*
X315725Y559455D01*
X315663Y559358D01*
X315596Y559263D01*
X315588Y559237D01*
X315573Y559215D01*
X315541Y559104D01*
X315503Y558994D01*
X315502Y558967D01*
X315495Y558942D01*
X315495Y558826D01*
X315489Y558710D01*
X315495Y558684D01*
X315495Y558657D01*
X315527Y558546D01*
X315553Y558433D01*
X315566Y558410D01*
X315574Y558384D01*
X315636Y558286D01*
X315692Y558185D01*
X315710Y558169D01*
X315725Y558144D01*
X315933Y557959D01*
X315937Y557955D01*
X318937Y555955D01*
X319001Y555924D01*
X319061Y555885D01*
X319129Y555863D01*
X319193Y555832D01*
X319264Y555820D01*
X319332Y555799D01*
X319403Y555797D01*
X319474Y555785D01*
X319545Y555793D01*
G37*
G36*
X387816Y48795D02*
X387816Y48795D01*
X387843Y48795D01*
X387954Y48827D01*
X388067Y48853D01*
X388090Y48866D01*
X388116Y48874D01*
X388214Y48936D01*
X388315Y48992D01*
X388331Y49010D01*
X388356Y49025D01*
X388541Y49233D01*
X388545Y49237D01*
X390545Y52237D01*
X390576Y52301D01*
X390616Y52361D01*
X390637Y52429D01*
X390668Y52493D01*
X390680Y52564D01*
X390701Y52632D01*
X390703Y52703D01*
X390715Y52774D01*
X390707Y52845D01*
X390709Y52916D01*
X390691Y52985D01*
X390682Y53056D01*
X390655Y53122D01*
X390637Y53191D01*
X390600Y53252D01*
X390573Y53318D01*
X390528Y53374D01*
X390492Y53436D01*
X390440Y53485D01*
X390395Y53540D01*
X390337Y53581D01*
X390284Y53630D01*
X390221Y53663D01*
X390163Y53704D01*
X390095Y53727D01*
X390031Y53760D01*
X389972Y53770D01*
X389894Y53797D01*
X389775Y53803D01*
X389700Y53815D01*
X385700Y53815D01*
X385629Y53805D01*
X385557Y53805D01*
X385489Y53785D01*
X385419Y53775D01*
X385353Y53746D01*
X385284Y53726D01*
X385224Y53688D01*
X385159Y53659D01*
X385104Y53613D01*
X385044Y53575D01*
X384996Y53522D01*
X384942Y53476D01*
X384902Y53416D01*
X384855Y53362D01*
X384824Y53298D01*
X384785Y53239D01*
X384763Y53171D01*
X384732Y53106D01*
X384720Y53036D01*
X384699Y52968D01*
X384697Y52896D01*
X384685Y52826D01*
X384693Y52755D01*
X384691Y52684D01*
X384710Y52614D01*
X384718Y52543D01*
X384743Y52488D01*
X384763Y52409D01*
X384824Y52306D01*
X384855Y52237D01*
X386855Y49237D01*
X386932Y49150D01*
X387005Y49060D01*
X387027Y49045D01*
X387045Y49025D01*
X387142Y48963D01*
X387237Y48896D01*
X387263Y48888D01*
X387285Y48873D01*
X387396Y48841D01*
X387506Y48803D01*
X387533Y48802D01*
X387558Y48795D01*
X387674Y48795D01*
X387790Y48789D01*
X387816Y48795D01*
G37*
G36*
X573571Y47795D02*
X573571Y47795D01*
X573643Y47795D01*
X573711Y47815D01*
X573782Y47825D01*
X573847Y47854D01*
X573916Y47874D01*
X573976Y47912D01*
X574041Y47941D01*
X574096Y47987D01*
X574156Y48025D01*
X574204Y48079D01*
X574258Y48125D01*
X574298Y48184D01*
X574345Y48238D01*
X574376Y48302D01*
X574416Y48361D01*
X574437Y48430D01*
X574468Y48494D01*
X574480Y48564D01*
X574501Y48632D01*
X574503Y48704D01*
X574515Y48775D01*
X574507Y48845D01*
X574509Y48916D01*
X574490Y48986D01*
X574482Y49057D01*
X574457Y49112D01*
X574437Y49191D01*
X574376Y49294D01*
X574345Y49363D01*
X572345Y52363D01*
X572268Y52450D01*
X572195Y52540D01*
X572173Y52555D01*
X572155Y52575D01*
X572058Y52637D01*
X571963Y52704D01*
X571937Y52712D01*
X571915Y52727D01*
X571804Y52759D01*
X571694Y52797D01*
X571667Y52798D01*
X571642Y52805D01*
X571526Y52805D01*
X571410Y52811D01*
X571384Y52805D01*
X571357Y52805D01*
X571246Y52773D01*
X571133Y52747D01*
X571110Y52734D01*
X571084Y52726D01*
X570986Y52664D01*
X570885Y52608D01*
X570869Y52590D01*
X570844Y52575D01*
X570659Y52367D01*
X570655Y52363D01*
X568655Y49363D01*
X568624Y49299D01*
X568585Y49239D01*
X568563Y49171D01*
X568532Y49107D01*
X568520Y49036D01*
X568499Y48968D01*
X568497Y48897D01*
X568485Y48827D01*
X568493Y48755D01*
X568491Y48684D01*
X568509Y48615D01*
X568518Y48544D01*
X568545Y48478D01*
X568563Y48409D01*
X568600Y48348D01*
X568627Y48282D01*
X568672Y48226D01*
X568709Y48164D01*
X568760Y48115D01*
X568805Y48060D01*
X568864Y48019D01*
X568916Y47970D01*
X568979Y47937D01*
X569037Y47896D01*
X569105Y47873D01*
X569169Y47840D01*
X569228Y47830D01*
X569306Y47803D01*
X569425Y47797D01*
X569500Y47785D01*
X573500Y47785D01*
X573571Y47795D01*
G37*
G36*
X315545Y22393D02*
X315545Y22393D01*
X315616Y22391D01*
X315686Y22410D01*
X315757Y22418D01*
X315812Y22443D01*
X315891Y22463D01*
X315994Y22524D01*
X316063Y22555D01*
X319063Y24555D01*
X319150Y24632D01*
X319240Y24705D01*
X319255Y24727D01*
X319275Y24745D01*
X319337Y24842D01*
X319404Y24937D01*
X319412Y24963D01*
X319427Y24985D01*
X319459Y25096D01*
X319497Y25206D01*
X319498Y25233D01*
X319505Y25258D01*
X319505Y25374D01*
X319511Y25490D01*
X319505Y25516D01*
X319505Y25543D01*
X319473Y25654D01*
X319447Y25767D01*
X319434Y25790D01*
X319426Y25816D01*
X319364Y25914D01*
X319308Y26015D01*
X319290Y26031D01*
X319275Y26056D01*
X319067Y26241D01*
X319063Y26245D01*
X316063Y28245D01*
X315999Y28276D01*
X315939Y28316D01*
X315871Y28337D01*
X315807Y28368D01*
X315736Y28380D01*
X315668Y28401D01*
X315597Y28403D01*
X315527Y28415D01*
X315455Y28407D01*
X315384Y28409D01*
X315315Y28391D01*
X315244Y28382D01*
X315178Y28355D01*
X315109Y28337D01*
X315048Y28300D01*
X314982Y28273D01*
X314926Y28228D01*
X314864Y28192D01*
X314815Y28140D01*
X314760Y28095D01*
X314719Y28037D01*
X314670Y27984D01*
X314637Y27921D01*
X314596Y27863D01*
X314573Y27795D01*
X314540Y27731D01*
X314530Y27672D01*
X314503Y27594D01*
X314497Y27475D01*
X314485Y27400D01*
X314485Y23400D01*
X314495Y23329D01*
X314495Y23257D01*
X314515Y23189D01*
X314525Y23119D01*
X314554Y23053D01*
X314574Y22984D01*
X314612Y22924D01*
X314641Y22859D01*
X314687Y22804D01*
X314725Y22744D01*
X314779Y22696D01*
X314825Y22642D01*
X314884Y22602D01*
X314938Y22555D01*
X315002Y22524D01*
X315061Y22485D01*
X315130Y22463D01*
X315194Y22432D01*
X315264Y22420D01*
X315332Y22399D01*
X315404Y22397D01*
X315475Y22385D01*
X315545Y22393D01*
G37*
G36*
X393816Y201195D02*
X393816Y201195D01*
X393843Y201195D01*
X393954Y201227D01*
X394067Y201253D01*
X394090Y201266D01*
X394116Y201274D01*
X394214Y201336D01*
X394315Y201392D01*
X394331Y201410D01*
X394356Y201425D01*
X394541Y201633D01*
X394545Y201637D01*
X396545Y204637D01*
X396576Y204701D01*
X396616Y204761D01*
X396637Y204829D01*
X396668Y204893D01*
X396680Y204964D01*
X396701Y205032D01*
X396703Y205103D01*
X396715Y205174D01*
X396707Y205245D01*
X396709Y205316D01*
X396691Y205385D01*
X396682Y205456D01*
X396655Y205522D01*
X396637Y205591D01*
X396600Y205652D01*
X396573Y205718D01*
X396528Y205774D01*
X396492Y205836D01*
X396440Y205885D01*
X396395Y205940D01*
X396337Y205981D01*
X396284Y206030D01*
X396221Y206063D01*
X396163Y206104D01*
X396095Y206127D01*
X396031Y206160D01*
X395972Y206170D01*
X395894Y206197D01*
X395775Y206203D01*
X395700Y206215D01*
X391700Y206215D01*
X391629Y206205D01*
X391557Y206205D01*
X391489Y206185D01*
X391419Y206175D01*
X391353Y206146D01*
X391284Y206126D01*
X391224Y206088D01*
X391159Y206059D01*
X391104Y206013D01*
X391044Y205975D01*
X390996Y205922D01*
X390942Y205876D01*
X390902Y205816D01*
X390855Y205762D01*
X390824Y205698D01*
X390785Y205639D01*
X390763Y205571D01*
X390732Y205506D01*
X390720Y205436D01*
X390699Y205368D01*
X390697Y205296D01*
X390685Y205226D01*
X390693Y205155D01*
X390691Y205084D01*
X390710Y205014D01*
X390718Y204943D01*
X390743Y204888D01*
X390763Y204809D01*
X390824Y204706D01*
X390855Y204637D01*
X392855Y201637D01*
X392932Y201550D01*
X393005Y201460D01*
X393027Y201445D01*
X393045Y201425D01*
X393142Y201363D01*
X393237Y201296D01*
X393263Y201288D01*
X393285Y201273D01*
X393396Y201241D01*
X393506Y201203D01*
X393533Y201202D01*
X393558Y201195D01*
X393674Y201195D01*
X393790Y201189D01*
X393816Y201195D01*
G37*
D10*
X237330Y565800D02*
X219870Y565800D01*
X219870Y551800D02*
X237330Y551800D01*
X231600Y558800D02*
X225600Y562800D01*
X225600Y554800D01*
X231600Y558800D01*
D11*
X232600Y558800D03*
D12*
X240538Y569722D02*
X240538Y576326D01*
X238704Y576326D01*
X238619Y576324D01*
X238535Y576318D01*
X238451Y576308D01*
X238367Y576295D01*
X238284Y576277D01*
X238202Y576256D01*
X238121Y576231D01*
X238041Y576202D01*
X237963Y576170D01*
X237887Y576134D01*
X237812Y576094D01*
X237739Y576051D01*
X237668Y576005D01*
X237599Y575956D01*
X237532Y575903D01*
X237468Y575847D01*
X237407Y575789D01*
X237349Y575728D01*
X237293Y575664D01*
X237240Y575597D01*
X237191Y575528D01*
X237145Y575457D01*
X237102Y575384D01*
X237062Y575309D01*
X237026Y575233D01*
X236994Y575155D01*
X236965Y575075D01*
X236940Y574994D01*
X236919Y574912D01*
X236901Y574829D01*
X236888Y574745D01*
X236878Y574661D01*
X236872Y574577D01*
X236870Y574492D01*
X236869Y574492D02*
X236869Y571556D01*
X236870Y571556D02*
X236872Y571471D01*
X236878Y571387D01*
X236888Y571303D01*
X236901Y571219D01*
X236919Y571136D01*
X236940Y571054D01*
X236965Y570973D01*
X236994Y570893D01*
X237026Y570815D01*
X237062Y570739D01*
X237102Y570664D01*
X237145Y570591D01*
X237191Y570520D01*
X237240Y570451D01*
X237293Y570384D01*
X237349Y570320D01*
X237407Y570259D01*
X237468Y570201D01*
X237532Y570145D01*
X237599Y570092D01*
X237668Y570043D01*
X237739Y569997D01*
X237812Y569954D01*
X237887Y569914D01*
X237963Y569878D01*
X238041Y569846D01*
X238121Y569817D01*
X238202Y569792D01*
X238284Y569771D01*
X238367Y569753D01*
X238451Y569740D01*
X238535Y569730D01*
X238619Y569724D01*
X238704Y569722D01*
X240538Y569722D01*
X232979Y574858D02*
X231145Y576326D01*
X231145Y569722D01*
X232979Y569722D02*
X229310Y569722D01*
D10*
X394700Y59530D02*
X394700Y42070D01*
X380700Y42070D02*
X380700Y59530D01*
X391700Y53800D02*
X387700Y47800D01*
X391700Y53800D02*
X383700Y53800D01*
X387700Y47800D01*
D13*
X387700Y46800D03*
D12*
X398622Y38862D02*
X405226Y38862D01*
X405226Y40696D01*
X405224Y40781D01*
X405218Y40865D01*
X405208Y40949D01*
X405195Y41033D01*
X405177Y41116D01*
X405156Y41198D01*
X405131Y41279D01*
X405102Y41359D01*
X405070Y41437D01*
X405034Y41513D01*
X404994Y41588D01*
X404951Y41661D01*
X404905Y41732D01*
X404856Y41801D01*
X404803Y41868D01*
X404747Y41932D01*
X404689Y41993D01*
X404628Y42051D01*
X404564Y42107D01*
X404497Y42160D01*
X404428Y42209D01*
X404357Y42255D01*
X404284Y42298D01*
X404209Y42338D01*
X404133Y42374D01*
X404055Y42406D01*
X403975Y42435D01*
X403894Y42460D01*
X403812Y42481D01*
X403729Y42499D01*
X403645Y42512D01*
X403561Y42522D01*
X403477Y42528D01*
X403392Y42530D01*
X403392Y42531D02*
X400456Y42531D01*
X400456Y42530D02*
X400371Y42528D01*
X400287Y42522D01*
X400203Y42512D01*
X400119Y42499D01*
X400036Y42481D01*
X399954Y42460D01*
X399873Y42435D01*
X399793Y42406D01*
X399715Y42374D01*
X399639Y42338D01*
X399564Y42298D01*
X399491Y42255D01*
X399420Y42209D01*
X399351Y42160D01*
X399284Y42107D01*
X399220Y42051D01*
X399159Y41993D01*
X399101Y41932D01*
X399045Y41868D01*
X398992Y41801D01*
X398943Y41732D01*
X398897Y41661D01*
X398854Y41588D01*
X398814Y41513D01*
X398778Y41437D01*
X398746Y41359D01*
X398717Y41279D01*
X398692Y41198D01*
X398671Y41116D01*
X398653Y41033D01*
X398640Y40949D01*
X398630Y40865D01*
X398624Y40781D01*
X398622Y40696D01*
X398622Y38862D01*
X403758Y46421D02*
X405226Y48255D01*
X398622Y48255D01*
X398622Y46421D02*
X398622Y50090D01*
X401924Y53736D02*
X402069Y53738D01*
X402214Y53744D01*
X402359Y53753D01*
X402504Y53767D01*
X402648Y53784D01*
X402791Y53806D01*
X402935Y53831D01*
X403077Y53860D01*
X403218Y53892D01*
X403359Y53929D01*
X403498Y53969D01*
X403637Y54013D01*
X403774Y54060D01*
X403910Y54111D01*
X404044Y54166D01*
X404177Y54224D01*
X404309Y54286D01*
X404378Y54312D01*
X404445Y54341D01*
X404511Y54374D01*
X404574Y54410D01*
X404636Y54450D01*
X404695Y54493D01*
X404752Y54539D01*
X404806Y54588D01*
X404858Y54640D01*
X404907Y54695D01*
X404952Y54752D01*
X404995Y54812D01*
X405034Y54874D01*
X405070Y54937D01*
X405103Y55003D01*
X405131Y55070D01*
X405157Y55139D01*
X405178Y55209D01*
X405196Y55280D01*
X405209Y55352D01*
X405219Y55425D01*
X405225Y55498D01*
X405227Y55571D01*
X405226Y55571D02*
X405224Y55644D01*
X405218Y55717D01*
X405208Y55790D01*
X405195Y55862D01*
X405177Y55933D01*
X405156Y56003D01*
X405130Y56071D01*
X405102Y56139D01*
X405069Y56204D01*
X405033Y56268D01*
X404994Y56330D01*
X404952Y56389D01*
X404906Y56446D01*
X404857Y56501D01*
X404806Y56553D01*
X404751Y56602D01*
X404694Y56648D01*
X404635Y56691D01*
X404574Y56731D01*
X404510Y56767D01*
X404445Y56800D01*
X404378Y56829D01*
X404309Y56855D01*
X404177Y56917D01*
X404044Y56975D01*
X403910Y57030D01*
X403774Y57081D01*
X403637Y57128D01*
X403498Y57172D01*
X403359Y57212D01*
X403218Y57249D01*
X403077Y57281D01*
X402935Y57310D01*
X402792Y57335D01*
X402648Y57357D01*
X402504Y57374D01*
X402359Y57388D01*
X402214Y57397D01*
X402069Y57403D01*
X401924Y57405D01*
X401924Y53737D02*
X401779Y53739D01*
X401634Y53745D01*
X401489Y53754D01*
X401344Y53768D01*
X401200Y53785D01*
X401057Y53807D01*
X400914Y53832D01*
X400771Y53860D01*
X400630Y53893D01*
X400489Y53930D01*
X400350Y53970D01*
X400211Y54014D01*
X400074Y54061D01*
X399938Y54112D01*
X399804Y54167D01*
X399671Y54225D01*
X399539Y54287D01*
X399540Y54286D02*
X399471Y54312D01*
X399404Y54341D01*
X399338Y54374D01*
X399275Y54410D01*
X399213Y54450D01*
X399154Y54493D01*
X399097Y54539D01*
X399043Y54588D01*
X398991Y54640D01*
X398942Y54695D01*
X398897Y54752D01*
X398854Y54812D01*
X398815Y54874D01*
X398779Y54937D01*
X398746Y55003D01*
X398718Y55070D01*
X398692Y55139D01*
X398671Y55209D01*
X398653Y55280D01*
X398640Y55352D01*
X398630Y55425D01*
X398624Y55498D01*
X398622Y55571D01*
X399539Y56855D02*
X399671Y56917D01*
X399804Y56975D01*
X399938Y57030D01*
X400074Y57081D01*
X400211Y57128D01*
X400350Y57172D01*
X400489Y57212D01*
X400630Y57249D01*
X400771Y57281D01*
X400913Y57310D01*
X401056Y57335D01*
X401200Y57357D01*
X401344Y57374D01*
X401489Y57388D01*
X401634Y57397D01*
X401779Y57403D01*
X401924Y57405D01*
X399539Y56855D02*
X399470Y56829D01*
X399403Y56800D01*
X399338Y56767D01*
X399274Y56731D01*
X399213Y56691D01*
X399154Y56648D01*
X399097Y56602D01*
X399042Y56553D01*
X398991Y56501D01*
X398942Y56446D01*
X398896Y56389D01*
X398854Y56330D01*
X398815Y56268D01*
X398779Y56204D01*
X398746Y56139D01*
X398718Y56071D01*
X398692Y56003D01*
X398671Y55933D01*
X398653Y55861D01*
X398640Y55790D01*
X398630Y55717D01*
X398624Y55644D01*
X398622Y55571D01*
X400090Y54103D02*
X403758Y57038D01*
D10*
X326230Y551800D02*
X308770Y551800D01*
X308770Y565800D02*
X326230Y565800D01*
X320500Y554800D02*
X314500Y558800D01*
X320500Y554800D02*
X320500Y562800D01*
X314500Y558800D01*
D11*
X313500Y558800D03*
D12*
X316790Y547878D02*
X316790Y541274D01*
X316790Y547878D02*
X314955Y547878D01*
X314870Y547876D01*
X314786Y547870D01*
X314702Y547860D01*
X314618Y547847D01*
X314535Y547829D01*
X314453Y547808D01*
X314372Y547783D01*
X314292Y547754D01*
X314214Y547722D01*
X314138Y547686D01*
X314063Y547646D01*
X313990Y547603D01*
X313919Y547557D01*
X313850Y547508D01*
X313783Y547455D01*
X313719Y547399D01*
X313658Y547341D01*
X313600Y547280D01*
X313544Y547216D01*
X313491Y547149D01*
X313442Y547080D01*
X313396Y547009D01*
X313353Y546936D01*
X313313Y546861D01*
X313277Y546785D01*
X313245Y546707D01*
X313216Y546627D01*
X313191Y546546D01*
X313170Y546464D01*
X313152Y546381D01*
X313139Y546297D01*
X313129Y546213D01*
X313123Y546129D01*
X313121Y546044D01*
X313121Y543108D01*
X313123Y543023D01*
X313129Y542939D01*
X313139Y542855D01*
X313152Y542771D01*
X313170Y542688D01*
X313191Y542606D01*
X313216Y542525D01*
X313245Y542445D01*
X313277Y542367D01*
X313313Y542291D01*
X313353Y542216D01*
X313396Y542143D01*
X313442Y542072D01*
X313491Y542003D01*
X313544Y541936D01*
X313600Y541872D01*
X313658Y541811D01*
X313719Y541753D01*
X313783Y541697D01*
X313850Y541644D01*
X313919Y541595D01*
X313990Y541549D01*
X314063Y541506D01*
X314138Y541466D01*
X314214Y541430D01*
X314292Y541398D01*
X314372Y541369D01*
X314453Y541344D01*
X314535Y541323D01*
X314618Y541305D01*
X314702Y541292D01*
X314786Y541282D01*
X314870Y541276D01*
X314955Y541274D01*
X316790Y541274D01*
X307213Y547878D02*
X307134Y547876D01*
X307056Y547871D01*
X306978Y547861D01*
X306901Y547848D01*
X306824Y547831D01*
X306748Y547811D01*
X306673Y547787D01*
X306599Y547760D01*
X306527Y547729D01*
X306456Y547694D01*
X306388Y547657D01*
X306320Y547616D01*
X306255Y547572D01*
X306192Y547525D01*
X306132Y547475D01*
X306074Y547422D01*
X306018Y547366D01*
X305965Y547308D01*
X305915Y547248D01*
X305868Y547185D01*
X305824Y547120D01*
X305783Y547053D01*
X305746Y546984D01*
X305711Y546913D01*
X305680Y546841D01*
X305653Y546767D01*
X305629Y546692D01*
X305609Y546616D01*
X305592Y546539D01*
X305579Y546462D01*
X305569Y546384D01*
X305564Y546306D01*
X305562Y546227D01*
X307213Y547878D02*
X307302Y547876D01*
X307391Y547871D01*
X307479Y547861D01*
X307567Y547848D01*
X307654Y547832D01*
X307741Y547811D01*
X307826Y547787D01*
X307911Y547760D01*
X307994Y547729D01*
X308076Y547694D01*
X308157Y547656D01*
X308236Y547615D01*
X308312Y547571D01*
X308388Y547523D01*
X308461Y547472D01*
X308531Y547419D01*
X308600Y547362D01*
X308666Y547302D01*
X308729Y547240D01*
X308790Y547175D01*
X308848Y547108D01*
X308903Y547038D01*
X308956Y546966D01*
X309005Y546892D01*
X309051Y546816D01*
X309093Y546738D01*
X309133Y546658D01*
X309169Y546577D01*
X309202Y546494D01*
X309231Y546410D01*
X306112Y544943D02*
X306056Y544999D01*
X306002Y545058D01*
X305951Y545119D01*
X305902Y545183D01*
X305857Y545248D01*
X305814Y545316D01*
X305775Y545385D01*
X305738Y545456D01*
X305705Y545529D01*
X305676Y545603D01*
X305649Y545678D01*
X305626Y545754D01*
X305607Y545832D01*
X305591Y545910D01*
X305578Y545988D01*
X305569Y546068D01*
X305564Y546147D01*
X305562Y546227D01*
X306112Y544943D02*
X309231Y541274D01*
X305562Y541274D01*
D10*
X300830Y375300D02*
X283370Y375300D01*
X283370Y361300D02*
X300830Y361300D01*
X295100Y368300D02*
X289100Y372300D01*
X289100Y364300D01*
X295100Y368300D01*
D11*
X296100Y368300D03*
D12*
X304038Y379222D02*
X304038Y385826D01*
X302204Y385826D01*
X302119Y385824D01*
X302035Y385818D01*
X301951Y385808D01*
X301867Y385795D01*
X301784Y385777D01*
X301702Y385756D01*
X301621Y385731D01*
X301541Y385702D01*
X301463Y385670D01*
X301387Y385634D01*
X301312Y385594D01*
X301239Y385551D01*
X301168Y385505D01*
X301099Y385456D01*
X301032Y385403D01*
X300968Y385347D01*
X300907Y385289D01*
X300849Y385228D01*
X300793Y385164D01*
X300740Y385097D01*
X300691Y385028D01*
X300645Y384957D01*
X300602Y384884D01*
X300562Y384809D01*
X300526Y384733D01*
X300494Y384655D01*
X300465Y384575D01*
X300440Y384494D01*
X300419Y384412D01*
X300401Y384329D01*
X300388Y384245D01*
X300378Y384161D01*
X300372Y384077D01*
X300370Y383992D01*
X300369Y383992D02*
X300369Y381056D01*
X300370Y381056D02*
X300372Y380971D01*
X300378Y380887D01*
X300388Y380803D01*
X300401Y380719D01*
X300419Y380636D01*
X300440Y380554D01*
X300465Y380473D01*
X300494Y380393D01*
X300526Y380315D01*
X300562Y380239D01*
X300602Y380164D01*
X300645Y380091D01*
X300691Y380020D01*
X300740Y379951D01*
X300793Y379884D01*
X300849Y379820D01*
X300907Y379759D01*
X300968Y379701D01*
X301032Y379645D01*
X301099Y379592D01*
X301168Y379543D01*
X301239Y379497D01*
X301312Y379454D01*
X301387Y379414D01*
X301463Y379378D01*
X301541Y379346D01*
X301621Y379317D01*
X301702Y379292D01*
X301784Y379271D01*
X301867Y379253D01*
X301951Y379240D01*
X302035Y379230D01*
X302119Y379224D01*
X302204Y379222D01*
X304038Y379222D01*
X296479Y379222D02*
X294645Y379222D01*
X294560Y379224D01*
X294476Y379230D01*
X294392Y379240D01*
X294308Y379253D01*
X294225Y379271D01*
X294143Y379292D01*
X294062Y379317D01*
X293982Y379346D01*
X293904Y379378D01*
X293828Y379414D01*
X293753Y379454D01*
X293680Y379497D01*
X293609Y379543D01*
X293540Y379592D01*
X293473Y379645D01*
X293409Y379701D01*
X293348Y379759D01*
X293290Y379820D01*
X293234Y379884D01*
X293181Y379951D01*
X293132Y380020D01*
X293086Y380091D01*
X293043Y380164D01*
X293003Y380239D01*
X292967Y380315D01*
X292935Y380393D01*
X292906Y380473D01*
X292881Y380554D01*
X292860Y380636D01*
X292842Y380719D01*
X292829Y380803D01*
X292819Y380887D01*
X292813Y380971D01*
X292811Y381056D01*
X292813Y381141D01*
X292819Y381225D01*
X292829Y381309D01*
X292842Y381393D01*
X292860Y381476D01*
X292881Y381558D01*
X292906Y381639D01*
X292935Y381719D01*
X292967Y381797D01*
X293003Y381873D01*
X293043Y381948D01*
X293086Y382021D01*
X293132Y382092D01*
X293181Y382161D01*
X293234Y382228D01*
X293290Y382292D01*
X293348Y382353D01*
X293409Y382411D01*
X293473Y382467D01*
X293540Y382520D01*
X293609Y382569D01*
X293680Y382615D01*
X293753Y382658D01*
X293828Y382698D01*
X293904Y382734D01*
X293982Y382766D01*
X294062Y382795D01*
X294143Y382820D01*
X294225Y382841D01*
X294308Y382859D01*
X294392Y382872D01*
X294476Y382882D01*
X294560Y382888D01*
X294645Y382890D01*
X294278Y385826D02*
X296479Y385826D01*
X294278Y385826D02*
X294202Y385824D01*
X294127Y385818D01*
X294052Y385809D01*
X293978Y385795D01*
X293904Y385778D01*
X293832Y385756D01*
X293760Y385732D01*
X293690Y385703D01*
X293622Y385671D01*
X293555Y385636D01*
X293490Y385597D01*
X293427Y385554D01*
X293367Y385509D01*
X293309Y385461D01*
X293253Y385409D01*
X293201Y385355D01*
X293151Y385298D01*
X293104Y385239D01*
X293060Y385178D01*
X293019Y385114D01*
X292982Y385048D01*
X292948Y384980D01*
X292918Y384911D01*
X292891Y384840D01*
X292868Y384768D01*
X292849Y384695D01*
X292834Y384621D01*
X292822Y384546D01*
X292814Y384471D01*
X292810Y384396D01*
X292810Y384320D01*
X292814Y384245D01*
X292822Y384170D01*
X292834Y384095D01*
X292849Y384021D01*
X292868Y383948D01*
X292891Y383876D01*
X292918Y383805D01*
X292948Y383736D01*
X292982Y383668D01*
X293019Y383602D01*
X293060Y383538D01*
X293104Y383477D01*
X293151Y383418D01*
X293201Y383361D01*
X293253Y383307D01*
X293309Y383255D01*
X293367Y383207D01*
X293427Y383162D01*
X293490Y383119D01*
X293555Y383080D01*
X293622Y383045D01*
X293690Y383013D01*
X293760Y382984D01*
X293832Y382960D01*
X293904Y382938D01*
X293978Y382921D01*
X294052Y382907D01*
X294127Y382898D01*
X294202Y382892D01*
X294278Y382890D01*
X294278Y382891D02*
X295745Y382891D01*
D10*
X388000Y389730D02*
X388000Y372270D01*
X374000Y372270D02*
X374000Y389730D01*
X385000Y384000D02*
X381000Y378000D01*
X385000Y384000D02*
X377000Y384000D01*
X381000Y378000D01*
D13*
X381000Y377000D03*
D12*
X391922Y369062D02*
X398526Y369062D01*
X398526Y370896D01*
X398524Y370981D01*
X398518Y371065D01*
X398508Y371149D01*
X398495Y371233D01*
X398477Y371316D01*
X398456Y371398D01*
X398431Y371479D01*
X398402Y371559D01*
X398370Y371637D01*
X398334Y371713D01*
X398294Y371788D01*
X398251Y371861D01*
X398205Y371932D01*
X398156Y372001D01*
X398103Y372068D01*
X398047Y372132D01*
X397989Y372193D01*
X397928Y372251D01*
X397864Y372307D01*
X397797Y372360D01*
X397728Y372409D01*
X397657Y372455D01*
X397584Y372498D01*
X397509Y372538D01*
X397433Y372574D01*
X397355Y372606D01*
X397275Y372635D01*
X397194Y372660D01*
X397112Y372681D01*
X397029Y372699D01*
X396945Y372712D01*
X396861Y372722D01*
X396777Y372728D01*
X396692Y372730D01*
X396692Y372731D02*
X393756Y372731D01*
X393756Y372730D02*
X393671Y372728D01*
X393587Y372722D01*
X393503Y372712D01*
X393419Y372699D01*
X393336Y372681D01*
X393254Y372660D01*
X393173Y372635D01*
X393093Y372606D01*
X393015Y372574D01*
X392939Y372538D01*
X392864Y372498D01*
X392791Y372455D01*
X392720Y372409D01*
X392651Y372360D01*
X392584Y372307D01*
X392520Y372251D01*
X392459Y372193D01*
X392401Y372132D01*
X392345Y372068D01*
X392292Y372001D01*
X392243Y371932D01*
X392197Y371861D01*
X392154Y371788D01*
X392114Y371713D01*
X392078Y371637D01*
X392046Y371559D01*
X392017Y371479D01*
X391992Y371398D01*
X391971Y371316D01*
X391953Y371233D01*
X391940Y371149D01*
X391930Y371065D01*
X391924Y370981D01*
X391922Y370896D01*
X391922Y369062D01*
X393390Y376621D02*
X398526Y378089D01*
X393390Y376621D02*
X393390Y380290D01*
X394857Y379189D02*
X391922Y379189D01*
D10*
X524670Y374000D02*
X542130Y374000D01*
X542130Y388000D02*
X524670Y388000D01*
X530400Y381000D02*
X536400Y377000D01*
X536400Y385000D01*
X530400Y381000D01*
D11*
X529400Y381000D03*
D12*
X532690Y370078D02*
X532690Y363474D01*
X532690Y370078D02*
X530855Y370078D01*
X530770Y370076D01*
X530686Y370070D01*
X530602Y370060D01*
X530518Y370047D01*
X530435Y370029D01*
X530353Y370008D01*
X530272Y369983D01*
X530192Y369954D01*
X530114Y369922D01*
X530038Y369886D01*
X529963Y369846D01*
X529890Y369803D01*
X529819Y369757D01*
X529750Y369708D01*
X529683Y369655D01*
X529619Y369599D01*
X529558Y369541D01*
X529500Y369480D01*
X529444Y369416D01*
X529391Y369349D01*
X529342Y369280D01*
X529296Y369209D01*
X529253Y369136D01*
X529213Y369061D01*
X529177Y368985D01*
X529145Y368907D01*
X529116Y368827D01*
X529091Y368746D01*
X529070Y368664D01*
X529052Y368581D01*
X529039Y368497D01*
X529029Y368413D01*
X529023Y368329D01*
X529021Y368244D01*
X529021Y365308D01*
X529023Y365223D01*
X529029Y365139D01*
X529039Y365055D01*
X529052Y364971D01*
X529070Y364888D01*
X529091Y364806D01*
X529116Y364725D01*
X529145Y364645D01*
X529177Y364567D01*
X529213Y364491D01*
X529253Y364416D01*
X529296Y364343D01*
X529342Y364272D01*
X529391Y364203D01*
X529444Y364136D01*
X529500Y364072D01*
X529558Y364011D01*
X529619Y363953D01*
X529683Y363897D01*
X529750Y363844D01*
X529819Y363795D01*
X529890Y363749D01*
X529963Y363706D01*
X530038Y363666D01*
X530114Y363630D01*
X530192Y363598D01*
X530272Y363569D01*
X530353Y363544D01*
X530435Y363523D01*
X530518Y363505D01*
X530602Y363492D01*
X530686Y363482D01*
X530770Y363476D01*
X530855Y363474D01*
X532690Y363474D01*
X525131Y363474D02*
X522930Y363474D01*
X522856Y363476D01*
X522781Y363482D01*
X522708Y363491D01*
X522634Y363504D01*
X522562Y363521D01*
X522491Y363541D01*
X522420Y363565D01*
X522351Y363593D01*
X522284Y363624D01*
X522218Y363658D01*
X522153Y363696D01*
X522091Y363737D01*
X522031Y363781D01*
X521974Y363828D01*
X521919Y363878D01*
X521866Y363931D01*
X521816Y363986D01*
X521769Y364043D01*
X521725Y364103D01*
X521684Y364165D01*
X521646Y364230D01*
X521612Y364295D01*
X521581Y364363D01*
X521553Y364432D01*
X521529Y364503D01*
X521509Y364574D01*
X521492Y364646D01*
X521479Y364720D01*
X521470Y364793D01*
X521464Y364868D01*
X521462Y364942D01*
X521462Y365675D01*
X521464Y365749D01*
X521470Y365824D01*
X521479Y365897D01*
X521492Y365971D01*
X521509Y366043D01*
X521529Y366114D01*
X521553Y366185D01*
X521581Y366254D01*
X521612Y366321D01*
X521646Y366387D01*
X521684Y366452D01*
X521725Y366514D01*
X521769Y366574D01*
X521816Y366631D01*
X521866Y366686D01*
X521919Y366739D01*
X521974Y366789D01*
X522031Y366836D01*
X522091Y366880D01*
X522153Y366921D01*
X522218Y366959D01*
X522284Y366993D01*
X522351Y367024D01*
X522420Y367052D01*
X522491Y367076D01*
X522562Y367096D01*
X522634Y367113D01*
X522708Y367126D01*
X522781Y367135D01*
X522856Y367141D01*
X522930Y367143D01*
X525131Y367143D01*
X525131Y370078D01*
X521462Y370078D01*
D10*
X300830Y197500D02*
X283370Y197500D01*
X283370Y183500D02*
X300830Y183500D01*
X295100Y190500D02*
X289100Y194500D01*
X289100Y186500D01*
X295100Y190500D01*
D11*
X296100Y190500D03*
D12*
X304038Y201422D02*
X304038Y208026D01*
X302204Y208026D01*
X302119Y208024D01*
X302035Y208018D01*
X301951Y208008D01*
X301867Y207995D01*
X301784Y207977D01*
X301702Y207956D01*
X301621Y207931D01*
X301541Y207902D01*
X301463Y207870D01*
X301387Y207834D01*
X301312Y207794D01*
X301239Y207751D01*
X301168Y207705D01*
X301099Y207656D01*
X301032Y207603D01*
X300968Y207547D01*
X300907Y207489D01*
X300849Y207428D01*
X300793Y207364D01*
X300740Y207297D01*
X300691Y207228D01*
X300645Y207157D01*
X300602Y207084D01*
X300562Y207009D01*
X300526Y206933D01*
X300494Y206855D01*
X300465Y206775D01*
X300440Y206694D01*
X300419Y206612D01*
X300401Y206529D01*
X300388Y206445D01*
X300378Y206361D01*
X300372Y206277D01*
X300370Y206192D01*
X300369Y206192D02*
X300369Y203256D01*
X300370Y203256D02*
X300372Y203171D01*
X300378Y203087D01*
X300388Y203003D01*
X300401Y202919D01*
X300419Y202836D01*
X300440Y202754D01*
X300465Y202673D01*
X300494Y202593D01*
X300526Y202515D01*
X300562Y202439D01*
X300602Y202364D01*
X300645Y202291D01*
X300691Y202220D01*
X300740Y202151D01*
X300793Y202084D01*
X300849Y202020D01*
X300907Y201959D01*
X300968Y201901D01*
X301032Y201845D01*
X301099Y201792D01*
X301168Y201743D01*
X301239Y201697D01*
X301312Y201654D01*
X301387Y201614D01*
X301463Y201578D01*
X301541Y201546D01*
X301621Y201517D01*
X301702Y201492D01*
X301784Y201471D01*
X301867Y201453D01*
X301951Y201440D01*
X302035Y201430D01*
X302119Y201424D01*
X302204Y201422D01*
X304038Y201422D01*
X296479Y205091D02*
X294278Y205091D01*
X294204Y205089D01*
X294129Y205083D01*
X294056Y205074D01*
X293982Y205061D01*
X293910Y205044D01*
X293839Y205024D01*
X293768Y205000D01*
X293699Y204972D01*
X293632Y204941D01*
X293566Y204907D01*
X293501Y204869D01*
X293439Y204828D01*
X293379Y204784D01*
X293322Y204737D01*
X293267Y204687D01*
X293214Y204634D01*
X293164Y204579D01*
X293117Y204522D01*
X293073Y204462D01*
X293032Y204400D01*
X292994Y204335D01*
X292960Y204269D01*
X292929Y204202D01*
X292901Y204133D01*
X292877Y204062D01*
X292857Y203991D01*
X292840Y203919D01*
X292827Y203845D01*
X292818Y203772D01*
X292812Y203697D01*
X292810Y203623D01*
X292810Y203256D01*
X292811Y203256D02*
X292813Y203171D01*
X292819Y203087D01*
X292829Y203003D01*
X292842Y202919D01*
X292860Y202836D01*
X292881Y202754D01*
X292906Y202673D01*
X292935Y202593D01*
X292967Y202515D01*
X293003Y202439D01*
X293043Y202364D01*
X293086Y202291D01*
X293132Y202220D01*
X293181Y202151D01*
X293234Y202084D01*
X293290Y202020D01*
X293348Y201959D01*
X293409Y201901D01*
X293473Y201845D01*
X293540Y201792D01*
X293609Y201743D01*
X293680Y201697D01*
X293753Y201654D01*
X293828Y201614D01*
X293904Y201578D01*
X293982Y201546D01*
X294062Y201517D01*
X294143Y201492D01*
X294225Y201471D01*
X294308Y201453D01*
X294392Y201440D01*
X294476Y201430D01*
X294560Y201424D01*
X294645Y201422D01*
X294730Y201424D01*
X294814Y201430D01*
X294898Y201440D01*
X294982Y201453D01*
X295065Y201471D01*
X295147Y201492D01*
X295228Y201517D01*
X295308Y201546D01*
X295386Y201578D01*
X295462Y201614D01*
X295537Y201654D01*
X295610Y201697D01*
X295681Y201743D01*
X295750Y201792D01*
X295817Y201845D01*
X295881Y201901D01*
X295942Y201959D01*
X296000Y202020D01*
X296056Y202084D01*
X296109Y202151D01*
X296158Y202220D01*
X296204Y202291D01*
X296247Y202364D01*
X296287Y202439D01*
X296323Y202515D01*
X296355Y202593D01*
X296384Y202673D01*
X296409Y202754D01*
X296430Y202836D01*
X296448Y202919D01*
X296461Y203003D01*
X296471Y203087D01*
X296477Y203171D01*
X296479Y203256D01*
X296479Y205091D01*
X296477Y205198D01*
X296471Y205305D01*
X296461Y205412D01*
X296448Y205518D01*
X296430Y205624D01*
X296409Y205729D01*
X296384Y205833D01*
X296355Y205937D01*
X296322Y206039D01*
X296285Y206139D01*
X296245Y206239D01*
X296201Y206337D01*
X296154Y206433D01*
X296103Y206527D01*
X296049Y206620D01*
X295992Y206710D01*
X295931Y206799D01*
X295867Y206885D01*
X295800Y206968D01*
X295730Y207050D01*
X295657Y207128D01*
X295581Y207204D01*
X295503Y207277D01*
X295421Y207347D01*
X295338Y207414D01*
X295252Y207478D01*
X295163Y207539D01*
X295073Y207596D01*
X294980Y207650D01*
X294886Y207701D01*
X294790Y207748D01*
X294692Y207792D01*
X294593Y207832D01*
X294492Y207869D01*
X294390Y207902D01*
X294286Y207931D01*
X294182Y207956D01*
X294077Y207977D01*
X293971Y207995D01*
X293865Y208008D01*
X293758Y208018D01*
X293651Y208024D01*
X293544Y208026D01*
D10*
X400700Y211930D02*
X400700Y194470D01*
X386700Y194470D02*
X386700Y211930D01*
X397700Y206200D02*
X393700Y200200D01*
X397700Y206200D02*
X389700Y206200D01*
X393700Y200200D01*
D13*
X393700Y199200D03*
D12*
X404622Y191262D02*
X411226Y191262D01*
X411226Y193096D01*
X411224Y193181D01*
X411218Y193265D01*
X411208Y193349D01*
X411195Y193433D01*
X411177Y193516D01*
X411156Y193598D01*
X411131Y193679D01*
X411102Y193759D01*
X411070Y193837D01*
X411034Y193913D01*
X410994Y193988D01*
X410951Y194061D01*
X410905Y194132D01*
X410856Y194201D01*
X410803Y194268D01*
X410747Y194332D01*
X410689Y194393D01*
X410628Y194451D01*
X410564Y194507D01*
X410497Y194560D01*
X410428Y194609D01*
X410357Y194655D01*
X410284Y194698D01*
X410209Y194738D01*
X410133Y194774D01*
X410055Y194806D01*
X409975Y194835D01*
X409894Y194860D01*
X409812Y194881D01*
X409729Y194899D01*
X409645Y194912D01*
X409561Y194922D01*
X409477Y194928D01*
X409392Y194930D01*
X409392Y194931D02*
X406456Y194931D01*
X406456Y194930D02*
X406371Y194928D01*
X406287Y194922D01*
X406203Y194912D01*
X406119Y194899D01*
X406036Y194881D01*
X405954Y194860D01*
X405873Y194835D01*
X405793Y194806D01*
X405715Y194774D01*
X405639Y194738D01*
X405564Y194698D01*
X405491Y194655D01*
X405420Y194609D01*
X405351Y194560D01*
X405284Y194507D01*
X405220Y194451D01*
X405159Y194393D01*
X405101Y194332D01*
X405045Y194268D01*
X404992Y194201D01*
X404943Y194132D01*
X404897Y194061D01*
X404854Y193988D01*
X404814Y193913D01*
X404778Y193837D01*
X404746Y193759D01*
X404717Y193679D01*
X404692Y193598D01*
X404671Y193516D01*
X404653Y193433D01*
X404640Y193349D01*
X404630Y193265D01*
X404624Y193181D01*
X404622Y193096D01*
X404622Y191262D01*
X410492Y198821D02*
X411226Y198821D01*
X411226Y202490D01*
X404622Y200655D01*
D10*
X557670Y185500D02*
X575130Y185500D01*
X575130Y199500D02*
X557670Y199500D01*
X563400Y192500D02*
X569400Y188500D01*
X569400Y196500D01*
X563400Y192500D01*
D11*
X562400Y192500D03*
D12*
X565690Y181578D02*
X565690Y174974D01*
X565690Y181578D02*
X563855Y181578D01*
X563770Y181576D01*
X563686Y181570D01*
X563602Y181560D01*
X563518Y181547D01*
X563435Y181529D01*
X563353Y181508D01*
X563272Y181483D01*
X563192Y181454D01*
X563114Y181422D01*
X563038Y181386D01*
X562963Y181346D01*
X562890Y181303D01*
X562819Y181257D01*
X562750Y181208D01*
X562683Y181155D01*
X562619Y181099D01*
X562558Y181041D01*
X562500Y180980D01*
X562444Y180916D01*
X562391Y180849D01*
X562342Y180780D01*
X562296Y180709D01*
X562253Y180636D01*
X562213Y180561D01*
X562177Y180485D01*
X562145Y180407D01*
X562116Y180327D01*
X562091Y180246D01*
X562070Y180164D01*
X562052Y180081D01*
X562039Y179997D01*
X562029Y179913D01*
X562023Y179829D01*
X562021Y179744D01*
X562021Y176808D01*
X562023Y176723D01*
X562029Y176639D01*
X562039Y176555D01*
X562052Y176471D01*
X562070Y176388D01*
X562091Y176306D01*
X562116Y176225D01*
X562145Y176145D01*
X562177Y176067D01*
X562213Y175991D01*
X562253Y175916D01*
X562296Y175843D01*
X562342Y175772D01*
X562391Y175703D01*
X562444Y175636D01*
X562500Y175572D01*
X562558Y175511D01*
X562619Y175453D01*
X562683Y175397D01*
X562750Y175344D01*
X562819Y175295D01*
X562890Y175249D01*
X562963Y175206D01*
X563038Y175166D01*
X563114Y175130D01*
X563192Y175098D01*
X563272Y175069D01*
X563353Y175044D01*
X563435Y175023D01*
X563518Y175005D01*
X563602Y174992D01*
X563686Y174982D01*
X563770Y174976D01*
X563855Y174974D01*
X565690Y174974D01*
X558130Y176808D02*
X558128Y176893D01*
X558122Y176977D01*
X558112Y177061D01*
X558099Y177145D01*
X558081Y177228D01*
X558060Y177310D01*
X558035Y177391D01*
X558006Y177471D01*
X557974Y177549D01*
X557938Y177625D01*
X557898Y177700D01*
X557855Y177773D01*
X557809Y177844D01*
X557760Y177913D01*
X557707Y177980D01*
X557651Y178044D01*
X557593Y178105D01*
X557532Y178163D01*
X557468Y178219D01*
X557401Y178272D01*
X557332Y178321D01*
X557261Y178367D01*
X557188Y178410D01*
X557113Y178450D01*
X557037Y178486D01*
X556959Y178518D01*
X556879Y178547D01*
X556798Y178572D01*
X556716Y178593D01*
X556633Y178611D01*
X556549Y178624D01*
X556465Y178634D01*
X556381Y178640D01*
X556296Y178642D01*
X556211Y178640D01*
X556127Y178634D01*
X556043Y178624D01*
X555959Y178611D01*
X555876Y178593D01*
X555794Y178572D01*
X555713Y178547D01*
X555633Y178518D01*
X555555Y178486D01*
X555479Y178450D01*
X555404Y178410D01*
X555331Y178367D01*
X555260Y178321D01*
X555191Y178272D01*
X555124Y178219D01*
X555060Y178163D01*
X554999Y178105D01*
X554941Y178044D01*
X554885Y177980D01*
X554832Y177913D01*
X554783Y177844D01*
X554737Y177773D01*
X554694Y177700D01*
X554654Y177625D01*
X554618Y177549D01*
X554586Y177471D01*
X554557Y177391D01*
X554532Y177310D01*
X554511Y177228D01*
X554493Y177145D01*
X554480Y177061D01*
X554470Y176977D01*
X554464Y176893D01*
X554462Y176808D01*
X554464Y176723D01*
X554470Y176639D01*
X554480Y176555D01*
X554493Y176471D01*
X554511Y176388D01*
X554532Y176306D01*
X554557Y176225D01*
X554586Y176145D01*
X554618Y176067D01*
X554654Y175991D01*
X554694Y175916D01*
X554737Y175843D01*
X554783Y175772D01*
X554832Y175703D01*
X554885Y175636D01*
X554941Y175572D01*
X554999Y175511D01*
X555060Y175453D01*
X555124Y175397D01*
X555191Y175344D01*
X555260Y175295D01*
X555331Y175249D01*
X555404Y175206D01*
X555479Y175166D01*
X555555Y175130D01*
X555633Y175098D01*
X555713Y175069D01*
X555794Y175044D01*
X555876Y175023D01*
X555959Y175005D01*
X556043Y174992D01*
X556127Y174982D01*
X556211Y174976D01*
X556296Y174974D01*
X556381Y174976D01*
X556465Y174982D01*
X556549Y174992D01*
X556633Y175005D01*
X556716Y175023D01*
X556798Y175044D01*
X556879Y175069D01*
X556959Y175098D01*
X557037Y175130D01*
X557113Y175166D01*
X557188Y175206D01*
X557261Y175249D01*
X557332Y175295D01*
X557401Y175344D01*
X557468Y175397D01*
X557532Y175453D01*
X557593Y175511D01*
X557651Y175572D01*
X557707Y175636D01*
X557760Y175703D01*
X557809Y175772D01*
X557855Y175843D01*
X557898Y175916D01*
X557938Y175991D01*
X557974Y176067D01*
X558006Y176145D01*
X558035Y176225D01*
X558060Y176306D01*
X558081Y176388D01*
X558099Y176471D01*
X558112Y176555D01*
X558122Y176639D01*
X558128Y176723D01*
X558130Y176808D01*
X557764Y180110D02*
X557762Y180186D01*
X557756Y180261D01*
X557747Y180336D01*
X557733Y180410D01*
X557716Y180484D01*
X557694Y180556D01*
X557670Y180628D01*
X557641Y180698D01*
X557609Y180766D01*
X557574Y180833D01*
X557535Y180898D01*
X557492Y180961D01*
X557447Y181021D01*
X557399Y181079D01*
X557347Y181135D01*
X557293Y181187D01*
X557236Y181237D01*
X557177Y181284D01*
X557116Y181328D01*
X557052Y181369D01*
X556986Y181406D01*
X556918Y181440D01*
X556849Y181470D01*
X556778Y181497D01*
X556706Y181520D01*
X556633Y181539D01*
X556559Y181554D01*
X556484Y181566D01*
X556409Y181574D01*
X556334Y181578D01*
X556258Y181578D01*
X556183Y181574D01*
X556108Y181566D01*
X556033Y181554D01*
X555959Y181539D01*
X555886Y181520D01*
X555814Y181497D01*
X555743Y181470D01*
X555674Y181440D01*
X555606Y181406D01*
X555540Y181369D01*
X555476Y181328D01*
X555415Y181284D01*
X555356Y181237D01*
X555299Y181187D01*
X555245Y181135D01*
X555193Y181079D01*
X555145Y181021D01*
X555100Y180961D01*
X555057Y180898D01*
X555018Y180833D01*
X554983Y180766D01*
X554951Y180698D01*
X554922Y180628D01*
X554898Y180556D01*
X554876Y180484D01*
X554859Y180410D01*
X554845Y180336D01*
X554836Y180261D01*
X554830Y180186D01*
X554828Y180110D01*
X554830Y180034D01*
X554836Y179959D01*
X554845Y179884D01*
X554859Y179810D01*
X554876Y179736D01*
X554898Y179664D01*
X554922Y179592D01*
X554951Y179522D01*
X554983Y179454D01*
X555018Y179387D01*
X555057Y179322D01*
X555100Y179259D01*
X555145Y179199D01*
X555193Y179141D01*
X555245Y179085D01*
X555299Y179033D01*
X555356Y178983D01*
X555415Y178936D01*
X555476Y178892D01*
X555540Y178851D01*
X555606Y178814D01*
X555674Y178780D01*
X555743Y178750D01*
X555814Y178723D01*
X555886Y178700D01*
X555959Y178681D01*
X556033Y178666D01*
X556108Y178654D01*
X556183Y178646D01*
X556258Y178642D01*
X556334Y178642D01*
X556409Y178646D01*
X556484Y178654D01*
X556559Y178666D01*
X556633Y178681D01*
X556706Y178700D01*
X556778Y178723D01*
X556849Y178750D01*
X556918Y178780D01*
X556986Y178814D01*
X557052Y178851D01*
X557116Y178892D01*
X557177Y178936D01*
X557236Y178983D01*
X557293Y179033D01*
X557347Y179085D01*
X557399Y179141D01*
X557447Y179199D01*
X557492Y179259D01*
X557535Y179322D01*
X557574Y179387D01*
X557609Y179454D01*
X557641Y179522D01*
X557670Y179592D01*
X557694Y179664D01*
X557716Y179736D01*
X557733Y179810D01*
X557747Y179884D01*
X557756Y179959D01*
X557762Y180034D01*
X557764Y180110D01*
D10*
X326230Y32400D02*
X308770Y32400D01*
X308770Y18400D02*
X326230Y18400D01*
X320500Y25400D02*
X314500Y29400D01*
X314500Y21400D01*
X320500Y25400D01*
D11*
X321500Y25400D03*
D12*
X329438Y36322D02*
X329438Y42926D01*
X327604Y42926D01*
X327519Y42924D01*
X327435Y42918D01*
X327351Y42908D01*
X327267Y42895D01*
X327184Y42877D01*
X327102Y42856D01*
X327021Y42831D01*
X326941Y42802D01*
X326863Y42770D01*
X326787Y42734D01*
X326712Y42694D01*
X326639Y42651D01*
X326568Y42605D01*
X326499Y42556D01*
X326432Y42503D01*
X326368Y42447D01*
X326307Y42389D01*
X326249Y42328D01*
X326193Y42264D01*
X326140Y42197D01*
X326091Y42128D01*
X326045Y42057D01*
X326002Y41984D01*
X325962Y41909D01*
X325926Y41833D01*
X325894Y41755D01*
X325865Y41675D01*
X325840Y41594D01*
X325819Y41512D01*
X325801Y41429D01*
X325788Y41345D01*
X325778Y41261D01*
X325772Y41177D01*
X325770Y41092D01*
X325769Y41092D02*
X325769Y38156D01*
X325770Y38156D02*
X325772Y38071D01*
X325778Y37987D01*
X325788Y37903D01*
X325801Y37819D01*
X325819Y37736D01*
X325840Y37654D01*
X325865Y37573D01*
X325894Y37493D01*
X325926Y37415D01*
X325962Y37339D01*
X326002Y37264D01*
X326045Y37191D01*
X326091Y37120D01*
X326140Y37051D01*
X326193Y36984D01*
X326249Y36920D01*
X326307Y36859D01*
X326368Y36801D01*
X326432Y36745D01*
X326499Y36692D01*
X326568Y36643D01*
X326639Y36597D01*
X326712Y36554D01*
X326787Y36514D01*
X326863Y36478D01*
X326941Y36446D01*
X327021Y36417D01*
X327102Y36392D01*
X327184Y36371D01*
X327267Y36353D01*
X327351Y36340D01*
X327435Y36330D01*
X327519Y36324D01*
X327604Y36322D01*
X329438Y36322D01*
X320411Y39257D02*
X318210Y39257D01*
X320411Y39257D02*
X320485Y39259D01*
X320560Y39265D01*
X320633Y39274D01*
X320707Y39287D01*
X320779Y39304D01*
X320850Y39324D01*
X320921Y39348D01*
X320990Y39376D01*
X321058Y39407D01*
X321123Y39441D01*
X321188Y39479D01*
X321250Y39520D01*
X321310Y39564D01*
X321367Y39611D01*
X321422Y39661D01*
X321475Y39714D01*
X321525Y39769D01*
X321572Y39826D01*
X321616Y39886D01*
X321657Y39948D01*
X321695Y40013D01*
X321729Y40079D01*
X321760Y40146D01*
X321788Y40215D01*
X321812Y40286D01*
X321832Y40357D01*
X321849Y40430D01*
X321862Y40503D01*
X321871Y40577D01*
X321877Y40651D01*
X321879Y40725D01*
X321879Y41092D01*
X321877Y41177D01*
X321871Y41261D01*
X321861Y41345D01*
X321848Y41429D01*
X321830Y41512D01*
X321809Y41594D01*
X321784Y41675D01*
X321755Y41755D01*
X321723Y41833D01*
X321687Y41909D01*
X321647Y41984D01*
X321604Y42057D01*
X321558Y42128D01*
X321509Y42197D01*
X321456Y42264D01*
X321400Y42328D01*
X321342Y42389D01*
X321281Y42447D01*
X321217Y42503D01*
X321150Y42556D01*
X321081Y42605D01*
X321010Y42651D01*
X320937Y42694D01*
X320862Y42734D01*
X320786Y42770D01*
X320708Y42802D01*
X320628Y42831D01*
X320547Y42856D01*
X320465Y42877D01*
X320382Y42895D01*
X320298Y42908D01*
X320214Y42918D01*
X320130Y42924D01*
X320045Y42926D01*
X319960Y42924D01*
X319876Y42918D01*
X319792Y42908D01*
X319708Y42895D01*
X319625Y42877D01*
X319543Y42856D01*
X319462Y42831D01*
X319382Y42802D01*
X319304Y42770D01*
X319228Y42734D01*
X319153Y42694D01*
X319080Y42651D01*
X319009Y42605D01*
X318940Y42556D01*
X318873Y42503D01*
X318809Y42447D01*
X318748Y42389D01*
X318690Y42328D01*
X318634Y42264D01*
X318581Y42197D01*
X318532Y42128D01*
X318486Y42057D01*
X318443Y41984D01*
X318403Y41909D01*
X318367Y41833D01*
X318335Y41755D01*
X318306Y41675D01*
X318281Y41594D01*
X318260Y41512D01*
X318242Y41429D01*
X318229Y41345D01*
X318219Y41261D01*
X318213Y41177D01*
X318211Y41092D01*
X318210Y41092D02*
X318210Y39257D01*
X318212Y39150D01*
X318218Y39043D01*
X318228Y38936D01*
X318241Y38830D01*
X318259Y38724D01*
X318280Y38619D01*
X318305Y38515D01*
X318334Y38411D01*
X318367Y38309D01*
X318404Y38209D01*
X318444Y38109D01*
X318488Y38011D01*
X318535Y37915D01*
X318586Y37821D01*
X318640Y37728D01*
X318697Y37638D01*
X318758Y37549D01*
X318822Y37463D01*
X318889Y37380D01*
X318959Y37298D01*
X319032Y37220D01*
X319108Y37144D01*
X319186Y37071D01*
X319268Y37001D01*
X319351Y36934D01*
X319437Y36870D01*
X319526Y36809D01*
X319616Y36752D01*
X319709Y36698D01*
X319803Y36647D01*
X319899Y36600D01*
X319997Y36556D01*
X320097Y36516D01*
X320197Y36479D01*
X320299Y36446D01*
X320403Y36417D01*
X320507Y36392D01*
X320612Y36371D01*
X320718Y36353D01*
X320824Y36340D01*
X320931Y36330D01*
X321038Y36324D01*
X321145Y36322D01*
D14*
X794900Y803600D02*
X794900Y923600D01*
X464900Y923600D02*
X464900Y803600D01*
D10*
X564500Y59530D02*
X564500Y42070D01*
X578500Y42070D02*
X578500Y59530D01*
X571500Y53800D02*
X567500Y47800D01*
X575500Y47800D01*
X571500Y53800D01*
D13*
X571500Y54800D03*
D12*
X560578Y44195D02*
X553974Y44195D01*
X560578Y44195D02*
X560578Y46029D01*
X560576Y46114D01*
X560570Y46198D01*
X560560Y46282D01*
X560547Y46366D01*
X560529Y46449D01*
X560508Y46531D01*
X560483Y46612D01*
X560454Y46692D01*
X560422Y46770D01*
X560386Y46846D01*
X560346Y46921D01*
X560303Y46994D01*
X560257Y47065D01*
X560208Y47134D01*
X560155Y47201D01*
X560099Y47265D01*
X560041Y47326D01*
X559980Y47384D01*
X559916Y47440D01*
X559849Y47493D01*
X559780Y47542D01*
X559709Y47588D01*
X559636Y47631D01*
X559561Y47671D01*
X559485Y47707D01*
X559407Y47739D01*
X559327Y47768D01*
X559246Y47793D01*
X559164Y47814D01*
X559081Y47832D01*
X558997Y47845D01*
X558913Y47855D01*
X558829Y47861D01*
X558744Y47863D01*
X558744Y47864D02*
X555808Y47864D01*
X555808Y47863D02*
X555723Y47861D01*
X555639Y47855D01*
X555555Y47845D01*
X555471Y47832D01*
X555388Y47814D01*
X555306Y47793D01*
X555225Y47768D01*
X555145Y47739D01*
X555067Y47707D01*
X554991Y47671D01*
X554916Y47631D01*
X554843Y47588D01*
X554772Y47542D01*
X554703Y47493D01*
X554636Y47440D01*
X554572Y47384D01*
X554511Y47326D01*
X554453Y47265D01*
X554397Y47201D01*
X554344Y47134D01*
X554295Y47065D01*
X554249Y46994D01*
X554206Y46921D01*
X554166Y46846D01*
X554130Y46770D01*
X554098Y46692D01*
X554069Y46612D01*
X554044Y46531D01*
X554023Y46449D01*
X554005Y46366D01*
X553992Y46282D01*
X553982Y46198D01*
X553976Y46114D01*
X553974Y46029D01*
X553974Y44195D01*
X559110Y51754D02*
X560578Y53588D01*
X553974Y53588D01*
X553974Y51754D02*
X553974Y55423D01*
X559110Y59069D02*
X560578Y60904D01*
X553974Y60904D01*
X553974Y62738D02*
X553974Y59069D01*
D14*
X714900Y24300D02*
X714900Y21300D01*
X752900Y21300D01*
X752900Y24300D01*
X714900Y56300D02*
X714900Y59300D01*
X752900Y59300D01*
X752900Y56300D01*
D12*
X762811Y5948D02*
X762811Y-656D01*
X759875Y-656D01*
X756471Y-656D02*
X753536Y-656D01*
X756471Y-656D02*
X756471Y5948D01*
X753536Y5948D01*
X754269Y3013D02*
X756471Y3013D01*
X750155Y5948D02*
X750155Y-656D01*
X750155Y5948D02*
X748321Y5948D01*
X748236Y5946D01*
X748152Y5940D01*
X748068Y5930D01*
X747984Y5917D01*
X747901Y5899D01*
X747819Y5878D01*
X747738Y5853D01*
X747658Y5824D01*
X747580Y5792D01*
X747504Y5756D01*
X747429Y5716D01*
X747356Y5673D01*
X747285Y5627D01*
X747216Y5578D01*
X747149Y5525D01*
X747085Y5469D01*
X747024Y5411D01*
X746966Y5350D01*
X746910Y5286D01*
X746857Y5219D01*
X746808Y5150D01*
X746762Y5079D01*
X746719Y5006D01*
X746679Y4931D01*
X746643Y4855D01*
X746611Y4777D01*
X746582Y4697D01*
X746557Y4616D01*
X746536Y4534D01*
X746518Y4451D01*
X746505Y4367D01*
X746495Y4283D01*
X746489Y4199D01*
X746487Y4114D01*
X746486Y4114D02*
X746486Y1178D01*
X746487Y1178D02*
X746489Y1093D01*
X746495Y1009D01*
X746505Y925D01*
X746518Y841D01*
X746536Y758D01*
X746557Y676D01*
X746582Y595D01*
X746611Y515D01*
X746643Y437D01*
X746679Y361D01*
X746719Y286D01*
X746762Y213D01*
X746808Y142D01*
X746857Y73D01*
X746910Y6D01*
X746966Y-58D01*
X747024Y-119D01*
X747085Y-177D01*
X747149Y-233D01*
X747216Y-286D01*
X747285Y-335D01*
X747356Y-381D01*
X747429Y-424D01*
X747504Y-464D01*
X747580Y-500D01*
X747658Y-532D01*
X747738Y-561D01*
X747819Y-586D01*
X747901Y-607D01*
X747984Y-625D01*
X748068Y-638D01*
X748152Y-648D01*
X748236Y-654D01*
X748321Y-656D01*
X750155Y-656D01*
X742596Y4480D02*
X740762Y5948D01*
X740762Y-656D01*
X742596Y-656D02*
X738927Y-656D01*
X733263Y5948D02*
X733184Y5946D01*
X733106Y5941D01*
X733028Y5931D01*
X732951Y5918D01*
X732874Y5901D01*
X732798Y5881D01*
X732723Y5857D01*
X732649Y5830D01*
X732577Y5799D01*
X732506Y5764D01*
X732438Y5727D01*
X732370Y5686D01*
X732305Y5642D01*
X732242Y5595D01*
X732182Y5545D01*
X732124Y5492D01*
X732068Y5436D01*
X732015Y5378D01*
X731965Y5318D01*
X731918Y5255D01*
X731874Y5190D01*
X731833Y5123D01*
X731796Y5054D01*
X731761Y4983D01*
X731730Y4911D01*
X731703Y4837D01*
X731679Y4762D01*
X731659Y4686D01*
X731642Y4609D01*
X731629Y4532D01*
X731619Y4454D01*
X731614Y4376D01*
X731612Y4297D01*
X733263Y5948D02*
X733352Y5946D01*
X733441Y5941D01*
X733529Y5931D01*
X733617Y5918D01*
X733704Y5902D01*
X733791Y5881D01*
X733876Y5857D01*
X733961Y5830D01*
X734044Y5799D01*
X734126Y5764D01*
X734207Y5726D01*
X734286Y5685D01*
X734362Y5641D01*
X734438Y5593D01*
X734511Y5542D01*
X734581Y5489D01*
X734650Y5432D01*
X734716Y5372D01*
X734779Y5310D01*
X734840Y5245D01*
X734898Y5178D01*
X734953Y5108D01*
X735006Y5036D01*
X735055Y4962D01*
X735101Y4886D01*
X735143Y4808D01*
X735183Y4728D01*
X735219Y4647D01*
X735252Y4564D01*
X735281Y4480D01*
X732162Y3013D02*
X732106Y3069D01*
X732052Y3128D01*
X732001Y3189D01*
X731952Y3253D01*
X731907Y3318D01*
X731864Y3386D01*
X731825Y3455D01*
X731788Y3526D01*
X731755Y3599D01*
X731726Y3673D01*
X731699Y3748D01*
X731676Y3824D01*
X731657Y3902D01*
X731641Y3980D01*
X731628Y4058D01*
X731619Y4138D01*
X731614Y4217D01*
X731612Y4297D01*
X732162Y3013D02*
X735281Y-656D01*
X731612Y-656D01*
D14*
X683100Y1012500D02*
X683100Y1015500D01*
X645100Y1015500D01*
X645100Y1012500D01*
X683100Y980500D02*
X683100Y977500D01*
X645100Y977500D01*
X645100Y980500D01*
D12*
X682388Y1018852D02*
X682388Y1025456D01*
X682388Y1018852D02*
X679453Y1018852D01*
X676048Y1018852D02*
X673113Y1018852D01*
X676048Y1018852D02*
X676048Y1025456D01*
X673113Y1025456D01*
X673847Y1022521D02*
X676048Y1022521D01*
X669733Y1025456D02*
X669733Y1018852D01*
X669733Y1025456D02*
X667898Y1025456D01*
X667813Y1025454D01*
X667729Y1025448D01*
X667645Y1025438D01*
X667561Y1025425D01*
X667478Y1025407D01*
X667396Y1025386D01*
X667315Y1025361D01*
X667235Y1025332D01*
X667157Y1025300D01*
X667081Y1025264D01*
X667006Y1025224D01*
X666933Y1025181D01*
X666862Y1025135D01*
X666793Y1025086D01*
X666726Y1025033D01*
X666662Y1024977D01*
X666601Y1024919D01*
X666543Y1024858D01*
X666487Y1024794D01*
X666434Y1024727D01*
X666385Y1024658D01*
X666339Y1024587D01*
X666296Y1024514D01*
X666256Y1024439D01*
X666220Y1024363D01*
X666188Y1024285D01*
X666159Y1024205D01*
X666134Y1024124D01*
X666113Y1024042D01*
X666095Y1023959D01*
X666082Y1023875D01*
X666072Y1023791D01*
X666066Y1023707D01*
X666064Y1023622D01*
X666064Y1020686D01*
X666066Y1020601D01*
X666072Y1020517D01*
X666082Y1020433D01*
X666095Y1020349D01*
X666113Y1020266D01*
X666134Y1020184D01*
X666159Y1020103D01*
X666188Y1020023D01*
X666220Y1019945D01*
X666256Y1019869D01*
X666296Y1019794D01*
X666339Y1019721D01*
X666385Y1019650D01*
X666434Y1019581D01*
X666487Y1019514D01*
X666543Y1019450D01*
X666601Y1019389D01*
X666662Y1019331D01*
X666726Y1019275D01*
X666793Y1019222D01*
X666862Y1019173D01*
X666933Y1019127D01*
X667006Y1019084D01*
X667081Y1019044D01*
X667157Y1019008D01*
X667235Y1018976D01*
X667315Y1018947D01*
X667396Y1018922D01*
X667478Y1018901D01*
X667561Y1018883D01*
X667645Y1018870D01*
X667729Y1018860D01*
X667813Y1018854D01*
X667898Y1018852D01*
X669733Y1018852D01*
X662174Y1023988D02*
X660339Y1025456D01*
X660339Y1018852D01*
X658505Y1018852D02*
X662174Y1018852D01*
X654858Y1018852D02*
X653024Y1018852D01*
X652939Y1018854D01*
X652855Y1018860D01*
X652771Y1018870D01*
X652687Y1018883D01*
X652604Y1018901D01*
X652522Y1018922D01*
X652441Y1018947D01*
X652361Y1018976D01*
X652283Y1019008D01*
X652207Y1019044D01*
X652132Y1019084D01*
X652059Y1019127D01*
X651988Y1019173D01*
X651919Y1019222D01*
X651852Y1019275D01*
X651788Y1019331D01*
X651727Y1019389D01*
X651669Y1019450D01*
X651613Y1019514D01*
X651560Y1019581D01*
X651511Y1019650D01*
X651465Y1019721D01*
X651422Y1019794D01*
X651382Y1019869D01*
X651346Y1019945D01*
X651314Y1020023D01*
X651285Y1020103D01*
X651260Y1020184D01*
X651239Y1020266D01*
X651221Y1020349D01*
X651208Y1020433D01*
X651198Y1020517D01*
X651192Y1020601D01*
X651190Y1020686D01*
X651192Y1020771D01*
X651198Y1020855D01*
X651208Y1020939D01*
X651221Y1021023D01*
X651239Y1021106D01*
X651260Y1021188D01*
X651285Y1021269D01*
X651314Y1021349D01*
X651346Y1021427D01*
X651382Y1021503D01*
X651422Y1021578D01*
X651465Y1021651D01*
X651511Y1021722D01*
X651560Y1021791D01*
X651613Y1021858D01*
X651669Y1021922D01*
X651727Y1021983D01*
X651788Y1022041D01*
X651852Y1022097D01*
X651919Y1022150D01*
X651988Y1022199D01*
X652059Y1022245D01*
X652132Y1022288D01*
X652207Y1022328D01*
X652283Y1022364D01*
X652361Y1022396D01*
X652441Y1022425D01*
X652522Y1022450D01*
X652604Y1022471D01*
X652687Y1022489D01*
X652771Y1022502D01*
X652855Y1022512D01*
X652939Y1022518D01*
X653024Y1022520D01*
X652657Y1025456D02*
X654858Y1025456D01*
X652657Y1025456D02*
X652581Y1025454D01*
X652506Y1025448D01*
X652431Y1025439D01*
X652357Y1025425D01*
X652283Y1025408D01*
X652211Y1025386D01*
X652139Y1025362D01*
X652069Y1025333D01*
X652001Y1025301D01*
X651934Y1025266D01*
X651869Y1025227D01*
X651806Y1025184D01*
X651746Y1025139D01*
X651688Y1025091D01*
X651632Y1025039D01*
X651580Y1024985D01*
X651530Y1024928D01*
X651483Y1024869D01*
X651439Y1024808D01*
X651398Y1024744D01*
X651361Y1024678D01*
X651327Y1024610D01*
X651297Y1024541D01*
X651270Y1024470D01*
X651247Y1024398D01*
X651228Y1024325D01*
X651213Y1024251D01*
X651201Y1024176D01*
X651193Y1024101D01*
X651189Y1024026D01*
X651189Y1023950D01*
X651193Y1023875D01*
X651201Y1023800D01*
X651213Y1023725D01*
X651228Y1023651D01*
X651247Y1023578D01*
X651270Y1023506D01*
X651297Y1023435D01*
X651327Y1023366D01*
X651361Y1023298D01*
X651398Y1023232D01*
X651439Y1023168D01*
X651483Y1023107D01*
X651530Y1023048D01*
X651580Y1022991D01*
X651632Y1022937D01*
X651688Y1022885D01*
X651746Y1022837D01*
X651806Y1022792D01*
X651869Y1022749D01*
X651934Y1022710D01*
X652001Y1022675D01*
X652069Y1022643D01*
X652139Y1022614D01*
X652211Y1022590D01*
X652283Y1022568D01*
X652357Y1022551D01*
X652431Y1022537D01*
X652506Y1022528D01*
X652581Y1022522D01*
X652657Y1022520D01*
X652657Y1022521D02*
X654125Y1022521D01*
D14*
X199300Y929800D02*
X199300Y926800D01*
X199300Y929800D02*
X161300Y929800D01*
X161300Y926800D01*
X199300Y894800D02*
X199300Y891800D01*
X161300Y891800D01*
X161300Y894800D01*
D12*
X198588Y933152D02*
X198588Y939756D01*
X198588Y933152D02*
X195653Y933152D01*
X192248Y933152D02*
X189313Y933152D01*
X192248Y933152D02*
X192248Y939756D01*
X189313Y939756D01*
X190047Y936821D02*
X192248Y936821D01*
X185933Y939756D02*
X185933Y933152D01*
X185933Y939756D02*
X184098Y939756D01*
X184013Y939754D01*
X183929Y939748D01*
X183845Y939738D01*
X183761Y939725D01*
X183678Y939707D01*
X183596Y939686D01*
X183515Y939661D01*
X183435Y939632D01*
X183357Y939600D01*
X183281Y939564D01*
X183206Y939524D01*
X183133Y939481D01*
X183062Y939435D01*
X182993Y939386D01*
X182926Y939333D01*
X182862Y939277D01*
X182801Y939219D01*
X182743Y939158D01*
X182687Y939094D01*
X182634Y939027D01*
X182585Y938958D01*
X182539Y938887D01*
X182496Y938814D01*
X182456Y938739D01*
X182420Y938663D01*
X182388Y938585D01*
X182359Y938505D01*
X182334Y938424D01*
X182313Y938342D01*
X182295Y938259D01*
X182282Y938175D01*
X182272Y938091D01*
X182266Y938007D01*
X182264Y937922D01*
X182264Y934986D01*
X182266Y934901D01*
X182272Y934817D01*
X182282Y934733D01*
X182295Y934649D01*
X182313Y934566D01*
X182334Y934484D01*
X182359Y934403D01*
X182388Y934323D01*
X182420Y934245D01*
X182456Y934169D01*
X182496Y934094D01*
X182539Y934021D01*
X182585Y933950D01*
X182634Y933881D01*
X182687Y933814D01*
X182743Y933750D01*
X182801Y933689D01*
X182862Y933631D01*
X182926Y933575D01*
X182993Y933522D01*
X183062Y933473D01*
X183133Y933427D01*
X183206Y933384D01*
X183281Y933344D01*
X183357Y933308D01*
X183435Y933276D01*
X183515Y933247D01*
X183596Y933222D01*
X183678Y933201D01*
X183761Y933183D01*
X183845Y933170D01*
X183929Y933160D01*
X184013Y933154D01*
X184098Y933152D01*
X185933Y933152D01*
X178374Y938288D02*
X176539Y939756D01*
X176539Y933152D01*
X174705Y933152D02*
X178374Y933152D01*
X171058Y934620D02*
X169591Y939756D01*
X171058Y934620D02*
X167389Y934620D01*
X168490Y936087D02*
X168490Y933152D01*
D14*
X233200Y54000D02*
X233200Y51000D01*
X233200Y54000D02*
X195200Y54000D01*
X195200Y51000D01*
X233200Y19000D02*
X233200Y16000D01*
X195200Y16000D01*
X195200Y19000D01*
D12*
X232488Y57352D02*
X232488Y63956D01*
X232488Y57352D02*
X229553Y57352D01*
X226148Y57352D02*
X223213Y57352D01*
X226148Y57352D02*
X226148Y63956D01*
X223213Y63956D01*
X223947Y61021D02*
X226148Y61021D01*
X219833Y63956D02*
X219833Y57352D01*
X219833Y63956D02*
X217998Y63956D01*
X217913Y63954D01*
X217829Y63948D01*
X217745Y63938D01*
X217661Y63925D01*
X217578Y63907D01*
X217496Y63886D01*
X217415Y63861D01*
X217335Y63832D01*
X217257Y63800D01*
X217181Y63764D01*
X217106Y63724D01*
X217033Y63681D01*
X216962Y63635D01*
X216893Y63586D01*
X216826Y63533D01*
X216762Y63477D01*
X216701Y63419D01*
X216643Y63358D01*
X216587Y63294D01*
X216534Y63227D01*
X216485Y63158D01*
X216439Y63087D01*
X216396Y63014D01*
X216356Y62939D01*
X216320Y62863D01*
X216288Y62785D01*
X216259Y62705D01*
X216234Y62624D01*
X216213Y62542D01*
X216195Y62459D01*
X216182Y62375D01*
X216172Y62291D01*
X216166Y62207D01*
X216164Y62122D01*
X216164Y59186D01*
X216166Y59101D01*
X216172Y59017D01*
X216182Y58933D01*
X216195Y58849D01*
X216213Y58766D01*
X216234Y58684D01*
X216259Y58603D01*
X216288Y58523D01*
X216320Y58445D01*
X216356Y58369D01*
X216396Y58294D01*
X216439Y58221D01*
X216485Y58150D01*
X216534Y58081D01*
X216587Y58014D01*
X216643Y57950D01*
X216701Y57889D01*
X216762Y57831D01*
X216826Y57775D01*
X216893Y57722D01*
X216962Y57673D01*
X217033Y57627D01*
X217106Y57584D01*
X217181Y57544D01*
X217257Y57508D01*
X217335Y57476D01*
X217415Y57447D01*
X217496Y57422D01*
X217578Y57401D01*
X217661Y57383D01*
X217745Y57370D01*
X217829Y57360D01*
X217913Y57354D01*
X217998Y57352D01*
X219833Y57352D01*
X212274Y62488D02*
X210439Y63956D01*
X210439Y57352D01*
X208605Y57352D02*
X212274Y57352D01*
X204958Y57352D02*
X202757Y57352D01*
X202683Y57354D01*
X202608Y57360D01*
X202535Y57369D01*
X202461Y57382D01*
X202389Y57399D01*
X202318Y57419D01*
X202247Y57443D01*
X202178Y57471D01*
X202111Y57502D01*
X202045Y57536D01*
X201980Y57574D01*
X201918Y57615D01*
X201858Y57659D01*
X201801Y57706D01*
X201746Y57756D01*
X201693Y57809D01*
X201643Y57864D01*
X201596Y57921D01*
X201552Y57981D01*
X201511Y58043D01*
X201473Y58108D01*
X201439Y58173D01*
X201408Y58241D01*
X201380Y58310D01*
X201356Y58381D01*
X201336Y58452D01*
X201319Y58524D01*
X201306Y58598D01*
X201297Y58671D01*
X201291Y58746D01*
X201289Y58820D01*
X201289Y59553D01*
X201291Y59627D01*
X201297Y59702D01*
X201306Y59775D01*
X201319Y59849D01*
X201336Y59921D01*
X201356Y59992D01*
X201380Y60063D01*
X201408Y60132D01*
X201439Y60199D01*
X201473Y60265D01*
X201511Y60330D01*
X201552Y60392D01*
X201596Y60452D01*
X201643Y60509D01*
X201693Y60564D01*
X201746Y60617D01*
X201801Y60667D01*
X201858Y60714D01*
X201918Y60758D01*
X201980Y60799D01*
X202045Y60837D01*
X202111Y60871D01*
X202178Y60902D01*
X202247Y60930D01*
X202318Y60954D01*
X202389Y60974D01*
X202461Y60991D01*
X202535Y61004D01*
X202608Y61013D01*
X202683Y61019D01*
X202757Y61021D01*
X204958Y61021D01*
X204958Y63956D01*
X201289Y63956D01*
D15*
X154458Y619389D02*
X154458Y621986D01*
X154458Y619389D02*
X154460Y619290D01*
X154466Y619190D01*
X154475Y619091D01*
X154488Y618993D01*
X154505Y618895D01*
X154526Y618797D01*
X154551Y618701D01*
X154579Y618606D01*
X154611Y618512D01*
X154646Y618419D01*
X154685Y618327D01*
X154728Y618237D01*
X154773Y618149D01*
X154823Y618062D01*
X154875Y617978D01*
X154931Y617895D01*
X154989Y617815D01*
X155051Y617737D01*
X155116Y617662D01*
X155184Y617589D01*
X155254Y617519D01*
X155327Y617451D01*
X155402Y617386D01*
X155480Y617324D01*
X155560Y617266D01*
X155643Y617210D01*
X155727Y617158D01*
X155814Y617108D01*
X155902Y617063D01*
X155992Y617020D01*
X156084Y616981D01*
X156177Y616946D01*
X156271Y616914D01*
X156366Y616886D01*
X156462Y616861D01*
X156560Y616840D01*
X156658Y616823D01*
X156756Y616810D01*
X156855Y616801D01*
X156955Y616795D01*
X157054Y616793D01*
X163546Y616793D01*
X163645Y616795D01*
X163745Y616801D01*
X163844Y616810D01*
X163942Y616823D01*
X164040Y616840D01*
X164138Y616861D01*
X164234Y616886D01*
X164329Y616914D01*
X164423Y616946D01*
X164516Y616981D01*
X164608Y617020D01*
X164698Y617063D01*
X164786Y617108D01*
X164873Y617158D01*
X164957Y617210D01*
X165040Y617266D01*
X165120Y617324D01*
X165198Y617386D01*
X165273Y617451D01*
X165346Y617519D01*
X165416Y617589D01*
X165484Y617662D01*
X165549Y617737D01*
X165611Y617815D01*
X165669Y617895D01*
X165725Y617978D01*
X165777Y618062D01*
X165827Y618149D01*
X165872Y618237D01*
X165915Y618327D01*
X165954Y618419D01*
X165989Y618511D01*
X166021Y618606D01*
X166049Y618701D01*
X166074Y618797D01*
X166095Y618895D01*
X166112Y618993D01*
X166125Y619091D01*
X166134Y619190D01*
X166140Y619290D01*
X166142Y619389D01*
X166142Y621986D01*
X166142Y629921D02*
X166140Y630028D01*
X166134Y630134D01*
X166124Y630240D01*
X166111Y630346D01*
X166093Y630452D01*
X166072Y630556D01*
X166047Y630660D01*
X166018Y630763D01*
X165986Y630864D01*
X165949Y630964D01*
X165909Y631063D01*
X165866Y631161D01*
X165819Y631257D01*
X165768Y631351D01*
X165714Y631443D01*
X165657Y631533D01*
X165597Y631621D01*
X165533Y631706D01*
X165466Y631789D01*
X165396Y631870D01*
X165324Y631948D01*
X165248Y632024D01*
X165170Y632096D01*
X165089Y632166D01*
X165006Y632233D01*
X164921Y632297D01*
X164833Y632357D01*
X164743Y632414D01*
X164651Y632468D01*
X164557Y632519D01*
X164461Y632566D01*
X164363Y632609D01*
X164264Y632649D01*
X164164Y632686D01*
X164063Y632718D01*
X163960Y632747D01*
X163856Y632772D01*
X163752Y632793D01*
X163646Y632811D01*
X163540Y632824D01*
X163434Y632834D01*
X163328Y632840D01*
X163221Y632842D01*
X166142Y629921D02*
X166140Y629800D01*
X166134Y629679D01*
X166124Y629559D01*
X166111Y629438D01*
X166093Y629319D01*
X166072Y629199D01*
X166047Y629081D01*
X166018Y628964D01*
X165985Y628847D01*
X165949Y628732D01*
X165908Y628618D01*
X165865Y628505D01*
X165817Y628393D01*
X165766Y628284D01*
X165711Y628176D01*
X165653Y628069D01*
X165592Y627965D01*
X165527Y627863D01*
X165459Y627763D01*
X165388Y627665D01*
X165314Y627569D01*
X165237Y627476D01*
X165156Y627386D01*
X165073Y627298D01*
X164987Y627213D01*
X164898Y627130D01*
X164807Y627051D01*
X164713Y626974D01*
X164617Y626901D01*
X164519Y626831D01*
X164418Y626764D01*
X164315Y626700D01*
X164210Y626640D01*
X164103Y626583D01*
X163995Y626529D01*
X163885Y626479D01*
X163773Y626433D01*
X163660Y626390D01*
X163545Y626351D01*
X160949Y631869D02*
X161026Y631948D01*
X161107Y632024D01*
X161190Y632097D01*
X161275Y632167D01*
X161363Y632234D01*
X161453Y632298D01*
X161545Y632358D01*
X161640Y632415D01*
X161736Y632469D01*
X161834Y632520D01*
X161934Y632567D01*
X162036Y632611D01*
X162139Y632651D01*
X162243Y632687D01*
X162349Y632719D01*
X162455Y632748D01*
X162563Y632773D01*
X162671Y632795D01*
X162781Y632812D01*
X162890Y632826D01*
X163000Y632835D01*
X163111Y632841D01*
X163221Y632843D01*
X160949Y631868D02*
X154458Y626351D01*
X154458Y632842D01*
X167458Y390986D02*
X167458Y388389D01*
X167460Y388290D01*
X167466Y388190D01*
X167475Y388091D01*
X167488Y387993D01*
X167505Y387895D01*
X167526Y387797D01*
X167551Y387701D01*
X167579Y387606D01*
X167611Y387512D01*
X167646Y387419D01*
X167685Y387327D01*
X167728Y387237D01*
X167773Y387149D01*
X167823Y387062D01*
X167875Y386978D01*
X167931Y386895D01*
X167989Y386815D01*
X168051Y386737D01*
X168116Y386662D01*
X168184Y386589D01*
X168254Y386519D01*
X168327Y386451D01*
X168402Y386386D01*
X168480Y386324D01*
X168560Y386266D01*
X168643Y386210D01*
X168727Y386158D01*
X168814Y386108D01*
X168902Y386063D01*
X168992Y386020D01*
X169084Y385981D01*
X169177Y385946D01*
X169271Y385914D01*
X169366Y385886D01*
X169462Y385861D01*
X169560Y385840D01*
X169658Y385823D01*
X169756Y385810D01*
X169855Y385801D01*
X169955Y385795D01*
X170054Y385793D01*
X176546Y385793D01*
X176645Y385795D01*
X176745Y385801D01*
X176844Y385810D01*
X176942Y385823D01*
X177040Y385840D01*
X177138Y385861D01*
X177234Y385886D01*
X177329Y385914D01*
X177423Y385946D01*
X177516Y385981D01*
X177608Y386020D01*
X177698Y386063D01*
X177786Y386108D01*
X177873Y386158D01*
X177957Y386210D01*
X178040Y386266D01*
X178120Y386324D01*
X178198Y386386D01*
X178273Y386451D01*
X178346Y386519D01*
X178416Y386589D01*
X178484Y386662D01*
X178549Y386737D01*
X178611Y386815D01*
X178669Y386895D01*
X178725Y386978D01*
X178777Y387062D01*
X178827Y387149D01*
X178872Y387237D01*
X178915Y387327D01*
X178954Y387419D01*
X178989Y387511D01*
X179021Y387606D01*
X179049Y387701D01*
X179074Y387797D01*
X179095Y387895D01*
X179112Y387993D01*
X179125Y388091D01*
X179134Y388190D01*
X179140Y388290D01*
X179142Y388389D01*
X179142Y390986D01*
X167458Y395351D02*
X167458Y398596D01*
X167460Y398709D01*
X167466Y398822D01*
X167476Y398935D01*
X167490Y399048D01*
X167507Y399160D01*
X167529Y399271D01*
X167554Y399381D01*
X167584Y399491D01*
X167617Y399599D01*
X167654Y399706D01*
X167694Y399812D01*
X167739Y399916D01*
X167787Y400019D01*
X167838Y400120D01*
X167893Y400219D01*
X167951Y400316D01*
X168013Y400411D01*
X168078Y400504D01*
X168146Y400594D01*
X168217Y400682D01*
X168292Y400768D01*
X168369Y400851D01*
X168449Y400931D01*
X168532Y401008D01*
X168618Y401083D01*
X168706Y401154D01*
X168796Y401222D01*
X168889Y401287D01*
X168984Y401349D01*
X169081Y401407D01*
X169180Y401462D01*
X169281Y401513D01*
X169384Y401561D01*
X169488Y401606D01*
X169594Y401646D01*
X169701Y401683D01*
X169809Y401716D01*
X169919Y401746D01*
X170029Y401771D01*
X170140Y401793D01*
X170252Y401810D01*
X170365Y401824D01*
X170478Y401834D01*
X170591Y401840D01*
X170704Y401842D01*
X170817Y401840D01*
X170930Y401834D01*
X171043Y401824D01*
X171156Y401810D01*
X171268Y401793D01*
X171379Y401771D01*
X171489Y401746D01*
X171599Y401716D01*
X171707Y401683D01*
X171814Y401646D01*
X171920Y401606D01*
X172024Y401561D01*
X172127Y401513D01*
X172228Y401462D01*
X172327Y401407D01*
X172424Y401349D01*
X172519Y401287D01*
X172612Y401222D01*
X172702Y401154D01*
X172790Y401083D01*
X172876Y401008D01*
X172959Y400931D01*
X173039Y400851D01*
X173116Y400768D01*
X173191Y400682D01*
X173262Y400594D01*
X173330Y400504D01*
X173395Y400411D01*
X173457Y400316D01*
X173515Y400219D01*
X173570Y400120D01*
X173621Y400019D01*
X173669Y399916D01*
X173714Y399812D01*
X173754Y399706D01*
X173791Y399599D01*
X173824Y399491D01*
X173854Y399381D01*
X173879Y399271D01*
X173901Y399160D01*
X173918Y399048D01*
X173932Y398935D01*
X173942Y398822D01*
X173948Y398709D01*
X173950Y398596D01*
X179142Y399246D02*
X179142Y395351D01*
X179142Y399246D02*
X179140Y399347D01*
X179134Y399447D01*
X179124Y399547D01*
X179111Y399647D01*
X179093Y399746D01*
X179072Y399845D01*
X179047Y399942D01*
X179018Y400039D01*
X178985Y400134D01*
X178949Y400228D01*
X178909Y400320D01*
X178866Y400411D01*
X178819Y400500D01*
X178769Y400587D01*
X178715Y400673D01*
X178658Y400756D01*
X178598Y400836D01*
X178535Y400915D01*
X178468Y400991D01*
X178399Y401064D01*
X178327Y401134D01*
X178253Y401202D01*
X178176Y401267D01*
X178096Y401328D01*
X178014Y401387D01*
X177930Y401442D01*
X177844Y401494D01*
X177756Y401543D01*
X177666Y401588D01*
X177574Y401630D01*
X177481Y401668D01*
X177386Y401702D01*
X177291Y401733D01*
X177194Y401760D01*
X177096Y401783D01*
X176997Y401803D01*
X176897Y401818D01*
X176797Y401830D01*
X176697Y401838D01*
X176596Y401842D01*
X176496Y401842D01*
X176395Y401838D01*
X176295Y401830D01*
X176195Y401818D01*
X176095Y401803D01*
X175996Y401783D01*
X175898Y401760D01*
X175801Y401733D01*
X175706Y401702D01*
X175611Y401668D01*
X175518Y401630D01*
X175426Y401588D01*
X175336Y401543D01*
X175248Y401494D01*
X175162Y401442D01*
X175078Y401387D01*
X174996Y401328D01*
X174916Y401267D01*
X174839Y401202D01*
X174765Y401134D01*
X174693Y401064D01*
X174624Y400991D01*
X174557Y400915D01*
X174494Y400836D01*
X174434Y400756D01*
X174377Y400673D01*
X174323Y400587D01*
X174273Y400500D01*
X174226Y400411D01*
X174183Y400320D01*
X174143Y400228D01*
X174107Y400134D01*
X174074Y400039D01*
X174045Y399942D01*
X174020Y399845D01*
X173999Y399746D01*
X173981Y399647D01*
X173968Y399547D01*
X173958Y399447D01*
X173952Y399347D01*
X173950Y399246D01*
X173949Y399246D02*
X173949Y396649D01*
X199858Y187351D02*
X199858Y184754D01*
X199860Y184655D01*
X199866Y184555D01*
X199875Y184456D01*
X199888Y184358D01*
X199905Y184260D01*
X199926Y184162D01*
X199951Y184066D01*
X199979Y183971D01*
X200011Y183877D01*
X200046Y183784D01*
X200085Y183692D01*
X200128Y183602D01*
X200173Y183514D01*
X200223Y183427D01*
X200275Y183343D01*
X200331Y183260D01*
X200389Y183180D01*
X200451Y183102D01*
X200516Y183027D01*
X200584Y182954D01*
X200654Y182884D01*
X200727Y182816D01*
X200802Y182751D01*
X200880Y182689D01*
X200960Y182631D01*
X201043Y182575D01*
X201127Y182523D01*
X201214Y182473D01*
X201302Y182428D01*
X201392Y182385D01*
X201484Y182346D01*
X201577Y182311D01*
X201671Y182279D01*
X201766Y182251D01*
X201862Y182226D01*
X201960Y182205D01*
X202058Y182188D01*
X202156Y182175D01*
X202255Y182166D01*
X202355Y182160D01*
X202454Y182158D01*
X208946Y182158D01*
X209045Y182160D01*
X209145Y182166D01*
X209244Y182175D01*
X209342Y182188D01*
X209440Y182205D01*
X209538Y182226D01*
X209634Y182251D01*
X209729Y182279D01*
X209823Y182311D01*
X209916Y182346D01*
X210008Y182385D01*
X210098Y182428D01*
X210186Y182473D01*
X210273Y182523D01*
X210357Y182575D01*
X210440Y182631D01*
X210520Y182689D01*
X210598Y182751D01*
X210673Y182816D01*
X210746Y182884D01*
X210816Y182954D01*
X210884Y183027D01*
X210949Y183102D01*
X211011Y183180D01*
X211069Y183260D01*
X211125Y183343D01*
X211177Y183427D01*
X211227Y183514D01*
X211272Y183602D01*
X211315Y183692D01*
X211354Y183784D01*
X211389Y183876D01*
X211421Y183971D01*
X211449Y184066D01*
X211474Y184162D01*
X211495Y184260D01*
X211512Y184358D01*
X211525Y184456D01*
X211534Y184555D01*
X211540Y184655D01*
X211542Y184754D01*
X211542Y187351D01*
X211542Y194313D02*
X202454Y191716D01*
X202454Y198207D01*
X205051Y196260D02*
X199858Y196260D01*
M02*
