G04 EAGLE Gerber RS-274X export*
G75*
%MOMM*%
%FSLAX34Y34*%
%LPD*%
%INSolderpaste Bottom*%
%IPPOS*%
%AMOC8*
5,1,8,0,0,1.08239X$1,22.5*%
G01*
%ADD10R,1.400000X1.400000*%
%ADD11R,2.000000X4.000000*%
%ADD12R,1.000000X0.850000*%
%ADD13R,1.500000X1.300000*%


D10*
X210100Y558800D03*
X247100Y558800D03*
X387700Y69300D03*
X387700Y32300D03*
X336000Y558800D03*
X299000Y558800D03*
X273600Y368300D03*
X310600Y368300D03*
X381000Y399500D03*
X381000Y362500D03*
X551900Y381000D03*
X514900Y381000D03*
X273600Y190500D03*
X310600Y190500D03*
X393700Y221700D03*
X393700Y184700D03*
X584900Y192500D03*
X547900Y192500D03*
X299000Y25400D03*
X336000Y25400D03*
D11*
X782300Y774700D03*
X756900Y774700D03*
X731500Y774700D03*
X706100Y774700D03*
X680700Y774700D03*
X655300Y774700D03*
X629900Y774700D03*
X604500Y774700D03*
X579100Y774700D03*
X553700Y774700D03*
X528300Y774700D03*
X502900Y774700D03*
X477500Y774700D03*
X477500Y952500D03*
X502900Y952500D03*
X528300Y952500D03*
X553700Y952500D03*
X579100Y952500D03*
X604500Y952500D03*
X629900Y952500D03*
X655300Y952500D03*
X680700Y952500D03*
X706100Y952500D03*
X731500Y952500D03*
X756900Y952500D03*
X782300Y952500D03*
D10*
X571500Y32300D03*
X571500Y69300D03*
D12*
X716400Y31550D03*
X751400Y31550D03*
X716400Y49050D03*
X751400Y49050D03*
X681600Y1005250D03*
X646600Y1005250D03*
X681600Y987750D03*
X646600Y987750D03*
X197800Y919550D03*
X162800Y919550D03*
X197800Y902050D03*
X162800Y902050D03*
X231700Y43750D03*
X196700Y43750D03*
X231700Y26250D03*
X196700Y26250D03*
D13*
X173000Y635500D03*
X173000Y618500D03*
X186000Y404500D03*
X186000Y387500D03*
X193000Y179500D03*
X193000Y196500D03*
M02*
