G04 EAGLE Gerber RS-274X export*
G75*
%MOMM*%
%FSLAX34Y34*%
%LPD*%
%INSoldermask Top*%
%IPPOS*%
%AMOC8*
5,1,8,0,0,1.08239X$1,22.5*%
G01*
%ADD10C,4.303200*%
%ADD11C,2.503200*%
%ADD12C,1.903200*%
%ADD13C,2.743200*%
%ADD14R,1.203200X1.053200*%
%ADD15R,0.893200X1.193200*%
%ADD16C,2.753200*%
%ADD17C,2.387600*%
%ADD18R,1.703200X1.503200*%
%ADD19R,1.003200X0.603200*%
%ADD20R,1.003200X0.503200*%
%ADD21R,1.853200X1.853200*%
%ADD22C,1.853200*%
%ADD23C,3.203200*%
%ADD24C,0.959600*%
%ADD25C,0.809600*%


D10*
X469900Y88900D03*
X469900Y660400D03*
X660400Y88900D03*
X279400Y88900D03*
X279400Y469900D03*
X660400Y279400D03*
X469900Y279400D03*
X469900Y469900D03*
X279400Y279400D03*
X660400Y469900D03*
D11*
X789000Y3000D03*
X790000Y1011000D03*
X83000Y1010000D03*
D12*
X609600Y469900D03*
X330200Y279400D03*
X228600Y279400D03*
X711200Y469900D03*
X419100Y279400D03*
X419100Y469900D03*
X711200Y279400D03*
X609600Y279400D03*
X520700Y469900D03*
X330200Y88900D03*
X228600Y88900D03*
X228600Y469900D03*
X711200Y88900D03*
X609600Y88900D03*
X330200Y469900D03*
X419100Y660400D03*
X520700Y660400D03*
X419100Y88900D03*
X520700Y88900D03*
X520700Y279400D03*
D11*
X84100Y2700D03*
D13*
X317400Y635000D03*
X253900Y609600D03*
D12*
X330100Y660400D03*
X228500Y660400D03*
D10*
X279300Y660400D03*
D13*
X508000Y63500D03*
X444500Y38100D03*
D12*
X520700Y88900D03*
X419100Y88900D03*
D10*
X469900Y88900D03*
D13*
X508000Y635000D03*
X444500Y609600D03*
D12*
X520700Y660400D03*
X419100Y660400D03*
D10*
X469900Y660400D03*
D13*
X317500Y444500D03*
X254000Y419100D03*
D12*
X330200Y469900D03*
X228600Y469900D03*
D10*
X279400Y469900D03*
D13*
X508000Y444500D03*
X444500Y419100D03*
D12*
X520700Y469900D03*
X419100Y469900D03*
D10*
X469900Y469900D03*
D13*
X698500Y444500D03*
X635000Y419100D03*
D12*
X711200Y469900D03*
X609600Y469900D03*
D10*
X660400Y469900D03*
D13*
X317500Y254000D03*
X254000Y228600D03*
D12*
X330200Y279400D03*
X228600Y279400D03*
D10*
X279400Y279400D03*
D13*
X508000Y254000D03*
X444500Y228600D03*
D12*
X520700Y279400D03*
X419100Y279400D03*
D10*
X469900Y279400D03*
D13*
X698500Y254000D03*
X635000Y228600D03*
D12*
X711200Y279400D03*
X609600Y279400D03*
D10*
X660400Y279400D03*
D13*
X317500Y63500D03*
X254000Y38100D03*
D12*
X330200Y88900D03*
X228600Y88900D03*
D10*
X279400Y88900D03*
D14*
X261900Y541450D03*
X296900Y541450D03*
X261900Y523950D03*
X296900Y523950D03*
X261400Y729100D03*
X296400Y729100D03*
X261400Y711600D03*
X296400Y711600D03*
X453400Y730950D03*
X488400Y730950D03*
X453400Y713450D03*
X488400Y713450D03*
X452400Y540450D03*
X487400Y540450D03*
X452400Y522950D03*
X487400Y522950D03*
X643900Y540450D03*
X678900Y540450D03*
X643900Y522950D03*
X678900Y522950D03*
X259900Y347950D03*
X294900Y347950D03*
X259900Y330450D03*
X294900Y330450D03*
X452400Y348950D03*
X487400Y348950D03*
X452400Y331450D03*
X487400Y331450D03*
X642900Y349950D03*
X677900Y349950D03*
X642900Y332450D03*
X677900Y332450D03*
X260900Y159450D03*
X295900Y159450D03*
X260900Y141950D03*
X295900Y141950D03*
X451400Y159450D03*
X486400Y159450D03*
X451400Y141950D03*
X486400Y141950D03*
D13*
X698500Y63500D03*
X635000Y38100D03*
D12*
X711200Y88900D03*
X609600Y88900D03*
D10*
X660400Y88900D03*
D15*
X131200Y822300D03*
X140700Y822300D03*
X150200Y822300D03*
X150200Y848200D03*
X131200Y848200D03*
D16*
X176300Y716400D03*
X176300Y88363D03*
X92300Y728400D03*
X92300Y76363D03*
D17*
X151800Y34863D03*
X151800Y769900D03*
X116800Y769900D03*
D18*
X199700Y750900D03*
X199700Y769900D03*
D14*
X641900Y160450D03*
X676900Y160450D03*
X641900Y142950D03*
X676900Y142950D03*
D19*
X107700Y867400D03*
X107700Y971400D03*
D20*
X132700Y961900D03*
X132700Y956900D03*
X132700Y951900D03*
X132700Y946900D03*
X132700Y941900D03*
X132700Y936900D03*
X132700Y931900D03*
X132700Y926900D03*
X132700Y921900D03*
X132700Y916900D03*
X132700Y911900D03*
X132700Y906900D03*
X132700Y901900D03*
X132700Y896900D03*
X132700Y891900D03*
X132700Y886900D03*
X132700Y881900D03*
X132700Y876900D03*
D18*
X706600Y977900D03*
X706600Y960900D03*
X560000Y298500D03*
X560000Y281500D03*
X566000Y90500D03*
X566000Y73500D03*
D21*
X632000Y736000D03*
D22*
X682000Y736000D03*
X632000Y591000D03*
X657000Y591000D03*
X682000Y591000D03*
D23*
X600000Y651000D02*
X600000Y681000D01*
X714000Y681000D02*
X714000Y651000D01*
D18*
X680600Y975900D03*
X680600Y958900D03*
D24*
X707000Y191000D03*
X549000Y210000D03*
X748900Y977900D03*
X114300Y114300D03*
X119248Y982252D03*
X695000Y7000D03*
X140000Y864000D03*
X181000Y144500D03*
X182000Y424800D03*
X178000Y675500D03*
X578600Y131400D03*
D25*
X164084Y953516D03*
X167132Y975360D03*
X773176Y985012D03*
X739648Y57912D03*
X369824Y132080D03*
X435356Y168656D03*
X374396Y725932D03*
X377444Y824992D03*
X245872Y860044D03*
X397256Y943864D03*
X706628Y168656D03*
X776224Y815848D03*
X743712Y804164D03*
X587248Y743712D03*
X548132Y744220D03*
X786892Y30988D03*
X755396Y646176D03*
D24*
X719000Y167000D03*
X612861Y111715D03*
X165100Y812800D03*
X736000Y889000D03*
X767000Y727000D03*
X705000Y908000D03*
X720000Y899000D03*
X759100Y20700D03*
X787000Y634000D03*
X695000Y1006000D03*
X307734Y945416D03*
X377300Y960100D03*
X554700Y977900D03*
X378050Y938550D03*
X501000Y978000D03*
X378500Y922266D03*
X528300Y925100D03*
X379250Y907850D03*
X647700Y863600D03*
X379800Y888900D03*
X706100Y926100D03*
X380200Y862300D03*
X655300Y806100D03*
X380500Y838600D03*
X635100Y863000D03*
M02*
