G04 EAGLE Gerber RS-274X export*
G75*
%MOMM*%
%FSLAX34Y34*%
%LPD*%
%INSolderpaste Top*%
%IPPOS*%
%AMOC8*
5,1,8,0,0,1.08239X$1,22.5*%
G01*
%ADD10R,1.000000X0.850000*%
%ADD11R,0.690000X0.990000*%
%ADD12R,1.500000X1.300000*%
%ADD13R,0.800000X0.400000*%
%ADD14R,0.800000X0.300000*%


D10*
X261900Y541450D03*
X296900Y541450D03*
X261900Y523950D03*
X296900Y523950D03*
X261400Y729100D03*
X296400Y729100D03*
X261400Y711600D03*
X296400Y711600D03*
X453400Y730950D03*
X488400Y730950D03*
X453400Y713450D03*
X488400Y713450D03*
X452400Y540450D03*
X487400Y540450D03*
X452400Y522950D03*
X487400Y522950D03*
X643900Y540450D03*
X678900Y540450D03*
X643900Y522950D03*
X678900Y522950D03*
X259900Y347950D03*
X294900Y347950D03*
X259900Y330450D03*
X294900Y330450D03*
X452400Y348950D03*
X487400Y348950D03*
X452400Y331450D03*
X487400Y331450D03*
X642900Y349950D03*
X677900Y349950D03*
X642900Y332450D03*
X677900Y332450D03*
X260900Y159450D03*
X295900Y159450D03*
X260900Y141950D03*
X295900Y141950D03*
X451400Y159450D03*
X486400Y159450D03*
X451400Y141950D03*
X486400Y141950D03*
D11*
X131200Y822300D03*
X140700Y822300D03*
X150200Y822300D03*
X150200Y848200D03*
X131200Y848200D03*
D12*
X199700Y750900D03*
X199700Y769900D03*
D10*
X641900Y160450D03*
X676900Y160450D03*
X641900Y142950D03*
X676900Y142950D03*
D13*
X107700Y867400D03*
X107700Y971400D03*
D14*
X132700Y961900D03*
X132700Y956900D03*
X132700Y951900D03*
X132700Y946900D03*
X132700Y941900D03*
X132700Y936900D03*
X132700Y931900D03*
X132700Y926900D03*
X132700Y921900D03*
X132700Y916900D03*
X132700Y911900D03*
X132700Y906900D03*
X132700Y901900D03*
X132700Y896900D03*
X132700Y891900D03*
X132700Y886900D03*
X132700Y881900D03*
X132700Y876900D03*
D12*
X706600Y977900D03*
X706600Y960900D03*
X560000Y298500D03*
X560000Y281500D03*
X566000Y90500D03*
X566000Y73500D03*
X680600Y975900D03*
X680600Y958900D03*
M02*
